G04 DesignSpark PCB Gerber Version 10.0 Build 5299*
%FSLAX35Y35*%
%MOIN*%
%ADD122C,0.03200*%
%ADD120C,0.03500*%
%ADD130C,0.03543*%
X0Y0D02*
D02*
D120*
X20250Y30250D03*
X50250D03*
X80250D03*
Y50250D03*
Y90250D03*
Y110250D03*
X90250Y30250D03*
Y50250D03*
Y90250D03*
Y110250D03*
X100250Y30250D03*
Y50250D03*
Y90250D03*
Y110250D03*
X110250Y30250D03*
Y50250D03*
Y90250D03*
Y110250D03*
X120250Y30250D03*
Y50250D03*
Y90250D03*
Y110250D03*
X130250Y30250D03*
Y50250D03*
Y90250D03*
Y110250D03*
X140250Y30250D03*
Y50250D03*
Y90250D03*
Y110250D03*
X150250Y30250D03*
Y50250D03*
Y90250D03*
Y110250D03*
X160250Y30250D03*
Y50250D03*
Y90250D03*
Y110250D03*
X170250Y30250D03*
Y50250D03*
Y90250D03*
Y110250D03*
X180250Y30250D03*
Y50250D03*
Y90250D03*
Y110250D03*
X190250Y30250D03*
Y50250D03*
Y90250D03*
Y110250D03*
X200250Y50250D03*
Y110250D03*
X210250Y50250D03*
Y110250D03*
X220250Y50250D03*
Y110250D03*
X230250Y50250D03*
Y110250D03*
D02*
D122*
X20250Y40250D03*
Y50250D03*
Y60250D03*
Y70250D03*
Y80250D03*
Y90250D03*
Y100250D03*
X50250Y40250D03*
Y50250D03*
Y60250D03*
Y70250D03*
Y80250D03*
Y90250D03*
Y100250D03*
D02*
D130*
X20250Y20250D03*
X30250D03*
X0Y0D02*
M02*
