G05
M48
INCH,TZ
FMAT,2
T1C000.03200
T2C000.03500
T3C000.03543
%
T001
X0.20250Y0.40250
X0.20250Y0.50250
X0.20250Y0.60250
X0.20250Y0.70250
X0.20250Y0.80250
X0.20250Y0.90250
X0.20250Y1.00250
X0.50250Y0.40250
X0.50250Y0.50250
X0.50250Y0.60250
X0.50250Y0.70250
X0.50250Y0.80250
X0.50250Y0.90250
X0.50250Y1.00250
T002
X0.20250Y0.30250
X0.50250Y0.30250
X0.80250Y0.30250
X0.80250Y0.50250
X0.80250Y0.90250
X0.80250Y1.10250
X0.90250Y0.30250
X0.90250Y0.50250
X0.90250Y0.90250
X0.90250Y1.10250
X1.00250Y0.30250
X1.00250Y0.50250
X1.00250Y0.90250
X1.00250Y1.10250
X1.10250Y0.30250
X1.10250Y0.50250
X1.10250Y0.90250
X1.10250Y1.10250
X1.20250Y0.30250
X1.20250Y0.50250
X1.20250Y0.90250
X1.20250Y1.10250
X1.30250Y0.30250
X1.30250Y0.50250
X1.30250Y0.90250
X1.30250Y1.10250
X1.40250Y0.30250
X1.40250Y0.50250
X1.40250Y0.90250
X1.40250Y1.10250
X1.50250Y0.30250
X1.50250Y0.50250
X1.50250Y0.90250
X1.50250Y1.10250
X1.60250Y0.30250
X1.60250Y0.50250
X1.60250Y0.90250
X1.60250Y1.10250
X1.70250Y0.30250
X1.70250Y0.50250
X1.70250Y0.90250
X1.70250Y1.10250
X1.80250Y0.30250
X1.80250Y0.50250
X1.80250Y0.90250
X1.80250Y1.10250
X1.90250Y0.30250
X1.90250Y0.50250
X1.90250Y0.90250
X1.90250Y1.10250
X2.00250Y0.50250
X2.00250Y1.10250
X2.10250Y0.50250
X2.10250Y1.10250
X2.20250Y0.50250
X2.20250Y1.10250
X2.30250Y0.50250
X2.30250Y1.10250
T003
X0.20250Y0.20250
X0.30250Y0.20250
M30
