G04 DesignSpark PCB Gerber Version 10.0 Build 5299*
%FSLAX35Y35*%
%MOIN*%
%ADD14C,0.00500*%
%ADD13C,0.10000*%
X0Y0D02*
D02*
D13*
X20250Y20250D03*
Y30250D03*
Y40250D03*
Y50250D03*
Y60250D03*
Y70250D03*
Y80250D03*
Y90250D03*
Y100250D03*
X30250Y20250D03*
X50250Y30250D03*
Y40250D03*
Y50250D03*
Y60250D03*
Y70250D03*
Y80250D03*
Y90250D03*
Y100250D03*
X80250Y30250D03*
Y50250D03*
Y90250D03*
Y110250D03*
X90250Y30250D03*
Y50250D03*
Y90250D03*
Y110250D03*
X100250Y30250D03*
Y50250D03*
Y90250D03*
Y110250D03*
X110250Y30250D03*
Y50250D03*
Y90250D03*
Y110250D03*
X120250Y30250D03*
Y50250D03*
Y90250D03*
Y110250D03*
X130250Y30250D03*
Y50250D03*
Y90250D03*
Y110250D03*
X140250Y30250D03*
Y50250D03*
Y90250D03*
Y110250D03*
X150250Y30250D03*
Y50250D03*
Y90250D03*
Y110250D03*
X160250Y30250D03*
Y50250D03*
Y90250D03*
Y110250D03*
X170250Y30250D03*
Y50250D03*
Y90250D03*
Y110250D03*
X180250Y30250D03*
Y50250D03*
Y90250D03*
Y110250D03*
X190250Y30250D03*
Y50250D03*
Y90250D03*
Y110250D03*
X200250Y50250D03*
Y110250D03*
X210250Y50250D03*
Y110250D03*
X220250Y50250D03*
Y110250D03*
X230250Y50250D03*
Y110250D03*
D02*
D14*
X30250Y26187D02*
Y29937D01*
Y28063D02*
X33375D01*
Y26187D02*
Y29937D01*
X30250Y36187D02*
Y39937D01*
X32125D01*
X32750Y39625D01*
X33063Y39313D01*
X33375Y38687D01*
Y37437D01*
X33063Y36813D01*
X32750Y36500D01*
X32125Y36187D01*
X30250D01*
Y46187D02*
Y49937D01*
X33375D01*
X32750Y48063D02*
X30250D01*
Y56187D02*
Y59937D01*
X33375D01*
X32750Y58063D02*
X30250D01*
Y66187D02*
Y69937D01*
X33375D01*
X32750Y68063D02*
X30250D01*
Y76187D02*
Y79937D01*
X33375D01*
X32750Y78063D02*
X30250D01*
Y86187D02*
Y89937D01*
X33375D01*
X32750Y88063D02*
X30250D01*
Y96187D02*
Y99937D01*
X33375D01*
X32750Y98063D02*
X30250D01*
Y106187D02*
Y109937D01*
X33375D01*
X32750Y108063D02*
X30250D01*
X40250Y26187D02*
Y29937D01*
Y28063D02*
X43375D01*
Y26187D02*
Y29937D01*
X60250Y36187D02*
Y39937D01*
X62125D01*
X62750Y39625D01*
X63063Y39313D01*
X63375Y38687D01*
Y37437D01*
X63063Y36813D01*
X62750Y36500D01*
X62125Y36187D01*
X60250D01*
Y46187D02*
Y49937D01*
X63375D01*
X62750Y48063D02*
X60250D01*
Y56187D02*
Y59937D01*
X63375D01*
X62750Y58063D02*
X60250D01*
Y66187D02*
Y69937D01*
X63375D01*
X62750Y68063D02*
X60250D01*
Y76187D02*
Y79937D01*
X63375D01*
X62750Y78063D02*
X60250D01*
Y86187D02*
Y89937D01*
X63375D01*
X62750Y88063D02*
X60250D01*
Y96187D02*
Y99937D01*
X63375D01*
X62750Y98063D02*
X60250D01*
Y106187D02*
Y109937D01*
X63375D01*
X62750Y108063D02*
X60250D01*
X90250Y36187D02*
Y39937D01*
X92125D01*
X92750Y39625D01*
X93063Y39313D01*
X93375Y38687D01*
Y37437D01*
X93063Y36813D01*
X92750Y36500D01*
X92125Y36187D01*
X90250D01*
Y56187D02*
Y59937D01*
X92125D01*
X92750Y59625D01*
X93063Y59313D01*
X93375Y58687D01*
Y57437D01*
X93063Y56813D01*
X92750Y56500D01*
X92125Y56187D01*
X90250D01*
Y96187D02*
Y99937D01*
X92125D01*
X92750Y99625D01*
X93063Y99313D01*
X93375Y98687D01*
Y97437D01*
X93063Y96813D01*
X92750Y96500D01*
X92125Y96187D01*
X90250D01*
Y116187D02*
Y119937D01*
X92125D01*
X92750Y119625D01*
X93063Y119313D01*
X93375Y118687D01*
Y117437D01*
X93063Y116813D01*
X92750Y116500D01*
X92125Y116187D01*
X90250D01*
X100250Y36187D02*
Y39937D01*
X102125D01*
X102750Y39625D01*
X103063Y39313D01*
X103375Y38687D01*
Y37437D01*
X103063Y36813D01*
X102750Y36500D01*
X102125Y36187D01*
X100250D01*
Y56187D02*
Y59937D01*
X102125D01*
X102750Y59625D01*
X103063Y59313D01*
X103375Y58687D01*
Y57437D01*
X103063Y56813D01*
X102750Y56500D01*
X102125Y56187D01*
X100250D01*
Y96187D02*
Y99937D01*
X102125D01*
X102750Y99625D01*
X103063Y99313D01*
X103375Y98687D01*
Y97437D01*
X103063Y96813D01*
X102750Y96500D01*
X102125Y96187D01*
X100250D01*
Y116187D02*
Y119937D01*
X102125D01*
X102750Y119625D01*
X103063Y119313D01*
X103375Y118687D01*
Y117437D01*
X103063Y116813D01*
X102750Y116500D01*
X102125Y116187D01*
X100250D01*
X110250Y36187D02*
Y39937D01*
X112125D01*
X112750Y39625D01*
X113063Y39313D01*
X113375Y38687D01*
Y37437D01*
X113063Y36813D01*
X112750Y36500D01*
X112125Y36187D01*
X110250D01*
Y56187D02*
Y59937D01*
X112125D01*
X112750Y59625D01*
X113063Y59313D01*
X113375Y58687D01*
Y57437D01*
X113063Y56813D01*
X112750Y56500D01*
X112125Y56187D01*
X110250D01*
Y96187D02*
Y99937D01*
X112125D01*
X112750Y99625D01*
X113063Y99313D01*
X113375Y98687D01*
Y97437D01*
X113063Y96813D01*
X112750Y96500D01*
X112125Y96187D01*
X110250D01*
Y116187D02*
Y119937D01*
X112125D01*
X112750Y119625D01*
X113063Y119313D01*
X113375Y118687D01*
Y117437D01*
X113063Y116813D01*
X112750Y116500D01*
X112125Y116187D01*
X110250D01*
X120250Y36187D02*
Y39937D01*
X122125D01*
X122750Y39625D01*
X123063Y39313D01*
X123375Y38687D01*
Y37437D01*
X123063Y36813D01*
X122750Y36500D01*
X122125Y36187D01*
X120250D01*
Y56187D02*
Y59937D01*
X122125D01*
X122750Y59625D01*
X123063Y59313D01*
X123375Y58687D01*
Y57437D01*
X123063Y56813D01*
X122750Y56500D01*
X122125Y56187D01*
X120250D01*
Y96187D02*
Y99937D01*
X122125D01*
X122750Y99625D01*
X123063Y99313D01*
X123375Y98687D01*
Y97437D01*
X123063Y96813D01*
X122750Y96500D01*
X122125Y96187D01*
X120250D01*
Y116187D02*
Y119937D01*
X122125D01*
X122750Y119625D01*
X123063Y119313D01*
X123375Y118687D01*
Y117437D01*
X123063Y116813D01*
X122750Y116500D01*
X122125Y116187D01*
X120250D01*
X130250Y36187D02*
Y39937D01*
X132125D01*
X132750Y39625D01*
X133063Y39313D01*
X133375Y38687D01*
Y37437D01*
X133063Y36813D01*
X132750Y36500D01*
X132125Y36187D01*
X130250D01*
Y56187D02*
Y59937D01*
X132125D01*
X132750Y59625D01*
X133063Y59313D01*
X133375Y58687D01*
Y57437D01*
X133063Y56813D01*
X132750Y56500D01*
X132125Y56187D01*
X130250D01*
Y96187D02*
Y99937D01*
X132125D01*
X132750Y99625D01*
X133063Y99313D01*
X133375Y98687D01*
Y97437D01*
X133063Y96813D01*
X132750Y96500D01*
X132125Y96187D01*
X130250D01*
Y116187D02*
Y119937D01*
X132125D01*
X132750Y119625D01*
X133063Y119313D01*
X133375Y118687D01*
Y117437D01*
X133063Y116813D01*
X132750Y116500D01*
X132125Y116187D01*
X130250D01*
X140250Y36187D02*
Y39937D01*
X142125D01*
X142750Y39625D01*
X143063Y39313D01*
X143375Y38687D01*
Y37437D01*
X143063Y36813D01*
X142750Y36500D01*
X142125Y36187D01*
X140250D01*
Y56187D02*
Y59937D01*
X142125D01*
X142750Y59625D01*
X143063Y59313D01*
X143375Y58687D01*
Y57437D01*
X143063Y56813D01*
X142750Y56500D01*
X142125Y56187D01*
X140250D01*
Y96187D02*
Y99937D01*
X142125D01*
X142750Y99625D01*
X143063Y99313D01*
X143375Y98687D01*
Y97437D01*
X143063Y96813D01*
X142750Y96500D01*
X142125Y96187D01*
X140250D01*
Y116187D02*
Y119937D01*
X142125D01*
X142750Y119625D01*
X143063Y119313D01*
X143375Y118687D01*
Y117437D01*
X143063Y116813D01*
X142750Y116500D01*
X142125Y116187D01*
X140250D01*
X150250Y36187D02*
Y39937D01*
X152125D01*
X152750Y39625D01*
X153063Y39313D01*
X153375Y38687D01*
Y37437D01*
X153063Y36813D01*
X152750Y36500D01*
X152125Y36187D01*
X150250D01*
Y56187D02*
Y59937D01*
X152125D01*
X152750Y59625D01*
X153063Y59313D01*
X153375Y58687D01*
Y57437D01*
X153063Y56813D01*
X152750Y56500D01*
X152125Y56187D01*
X150250D01*
Y96187D02*
Y99937D01*
X152125D01*
X152750Y99625D01*
X153063Y99313D01*
X153375Y98687D01*
Y97437D01*
X153063Y96813D01*
X152750Y96500D01*
X152125Y96187D01*
X150250D01*
Y116187D02*
Y119937D01*
X152125D01*
X152750Y119625D01*
X153063Y119313D01*
X153375Y118687D01*
Y117437D01*
X153063Y116813D01*
X152750Y116500D01*
X152125Y116187D01*
X150250D01*
X160250Y36187D02*
Y39937D01*
X162125D01*
X162750Y39625D01*
X163063Y39313D01*
X163375Y38687D01*
Y37437D01*
X163063Y36813D01*
X162750Y36500D01*
X162125Y36187D01*
X160250D01*
Y56187D02*
Y59937D01*
X162125D01*
X162750Y59625D01*
X163063Y59313D01*
X163375Y58687D01*
Y57437D01*
X163063Y56813D01*
X162750Y56500D01*
X162125Y56187D01*
X160250D01*
Y96187D02*
Y99937D01*
X162125D01*
X162750Y99625D01*
X163063Y99313D01*
X163375Y98687D01*
Y97437D01*
X163063Y96813D01*
X162750Y96500D01*
X162125Y96187D01*
X160250D01*
Y116187D02*
Y119937D01*
X162125D01*
X162750Y119625D01*
X163063Y119313D01*
X163375Y118687D01*
Y117437D01*
X163063Y116813D01*
X162750Y116500D01*
X162125Y116187D01*
X160250D01*
X170250Y36187D02*
Y39937D01*
X172125D01*
X172750Y39625D01*
X173063Y39313D01*
X173375Y38687D01*
Y37437D01*
X173063Y36813D01*
X172750Y36500D01*
X172125Y36187D01*
X170250D01*
Y56187D02*
Y59937D01*
X172125D01*
X172750Y59625D01*
X173063Y59313D01*
X173375Y58687D01*
Y57437D01*
X173063Y56813D01*
X172750Y56500D01*
X172125Y56187D01*
X170250D01*
Y96187D02*
Y99937D01*
X172125D01*
X172750Y99625D01*
X173063Y99313D01*
X173375Y98687D01*
Y97437D01*
X173063Y96813D01*
X172750Y96500D01*
X172125Y96187D01*
X170250D01*
Y116187D02*
Y119937D01*
X172125D01*
X172750Y119625D01*
X173063Y119313D01*
X173375Y118687D01*
Y117437D01*
X173063Y116813D01*
X172750Y116500D01*
X172125Y116187D01*
X170250D01*
X180250Y36187D02*
Y39937D01*
X182125D01*
X182750Y39625D01*
X183063Y39313D01*
X183375Y38687D01*
Y37437D01*
X183063Y36813D01*
X182750Y36500D01*
X182125Y36187D01*
X180250D01*
Y56187D02*
Y59937D01*
X182125D01*
X182750Y59625D01*
X183063Y59313D01*
X183375Y58687D01*
Y57437D01*
X183063Y56813D01*
X182750Y56500D01*
X182125Y56187D01*
X180250D01*
Y96187D02*
Y99937D01*
X182125D01*
X182750Y99625D01*
X183063Y99313D01*
X183375Y98687D01*
Y97437D01*
X183063Y96813D01*
X182750Y96500D01*
X182125Y96187D01*
X180250D01*
Y116187D02*
Y119937D01*
X182125D01*
X182750Y119625D01*
X183063Y119313D01*
X183375Y118687D01*
Y117437D01*
X183063Y116813D01*
X182750Y116500D01*
X182125Y116187D01*
X180250D01*
X190250Y36187D02*
Y39937D01*
X192125D01*
X192750Y39625D01*
X193063Y39313D01*
X193375Y38687D01*
Y37437D01*
X193063Y36813D01*
X192750Y36500D01*
X192125Y36187D01*
X190250D01*
Y56187D02*
Y59937D01*
X192125D01*
X192750Y59625D01*
X193063Y59313D01*
X193375Y58687D01*
Y57437D01*
X193063Y56813D01*
X192750Y56500D01*
X192125Y56187D01*
X190250D01*
Y96187D02*
Y99937D01*
X192125D01*
X192750Y99625D01*
X193063Y99313D01*
X193375Y98687D01*
Y97437D01*
X193063Y96813D01*
X192750Y96500D01*
X192125Y96187D01*
X190250D01*
Y116187D02*
Y119937D01*
X192125D01*
X192750Y119625D01*
X193063Y119313D01*
X193375Y118687D01*
Y117437D01*
X193063Y116813D01*
X192750Y116500D01*
X192125Y116187D01*
X190250D01*
X200250Y36187D02*
Y39937D01*
X202125D01*
X202750Y39625D01*
X203063Y39313D01*
X203375Y38687D01*
Y37437D01*
X203063Y36813D01*
X202750Y36500D01*
X202125Y36187D01*
X200250D01*
Y56187D02*
Y59937D01*
X202125D01*
X202750Y59625D01*
X203063Y59313D01*
X203375Y58687D01*
Y57437D01*
X203063Y56813D01*
X202750Y56500D01*
X202125Y56187D01*
X200250D01*
Y96187D02*
Y99937D01*
X202125D01*
X202750Y99625D01*
X203063Y99313D01*
X203375Y98687D01*
Y97437D01*
X203063Y96813D01*
X202750Y96500D01*
X202125Y96187D01*
X200250D01*
Y116187D02*
Y119937D01*
X202125D01*
X202750Y119625D01*
X203063Y119313D01*
X203375Y118687D01*
Y117437D01*
X203063Y116813D01*
X202750Y116500D01*
X202125Y116187D01*
X200250D01*
X210250Y56187D02*
Y59937D01*
X212125D01*
X212750Y59625D01*
X213063Y59313D01*
X213375Y58687D01*
Y57437D01*
X213063Y56813D01*
X212750Y56500D01*
X212125Y56187D01*
X210250D01*
Y116187D02*
Y119937D01*
X212125D01*
X212750Y119625D01*
X213063Y119313D01*
X213375Y118687D01*
Y117437D01*
X213063Y116813D01*
X212750Y116500D01*
X212125Y116187D01*
X210250D01*
X220250Y56187D02*
Y59937D01*
X222125D01*
X222750Y59625D01*
X223063Y59313D01*
X223375Y58687D01*
Y57437D01*
X223063Y56813D01*
X222750Y56500D01*
X222125Y56187D01*
X220250D01*
Y116187D02*
Y119937D01*
X222125D01*
X222750Y119625D01*
X223063Y119313D01*
X223375Y118687D01*
Y117437D01*
X223063Y116813D01*
X222750Y116500D01*
X222125Y116187D01*
X220250D01*
X230250Y56187D02*
Y59937D01*
X232125D01*
X232750Y59625D01*
X233063Y59313D01*
X233375Y58687D01*
Y57437D01*
X233063Y56813D01*
X232750Y56500D01*
X232125Y56187D01*
X230250D01*
Y116187D02*
Y119937D01*
X232125D01*
X232750Y119625D01*
X233063Y119313D01*
X233375Y118687D01*
Y117437D01*
X233063Y116813D01*
X232750Y116500D01*
X232125Y116187D01*
X230250D01*
X240250Y56187D02*
Y59937D01*
X242125D01*
X242750Y59625D01*
X243063Y59313D01*
X243375Y58687D01*
Y57437D01*
X243063Y56813D01*
X242750Y56500D01*
X242125Y56187D01*
X240250D01*
Y116187D02*
Y119937D01*
X242125D01*
X242750Y119625D01*
X243063Y119313D01*
X243375Y118687D01*
Y117437D01*
X243063Y116813D01*
X242750Y116500D01*
X242125Y116187D01*
X240250D01*
X0Y0D02*
M02*
