G04 DesignSpark PCB Gerber Version 10.0 Build 5299*
%FSLAX35Y35*%
%MOIN*%
%ADD72C,0.00100*%
X0Y0D02*
D02*
D72*
X55250Y10719D02*
Y12594D01*
X53687Y10719D01*
Y12594D01*
X51187Y11031D02*
X51344Y10875D01*
X51656Y10719D01*
X52125D01*
X52437Y10875D01*
X52594Y11031D01*
X52750Y11344D01*
Y11969D01*
X52594Y12281D01*
X52437Y12437D01*
X52125Y12594D01*
X51656D01*
X51344Y12437D01*
X51187Y12281D01*
X46656Y10719D02*
X46969Y11187D01*
Y12281D01*
X46656Y12594D01*
X45250D02*
Y10719D01*
X43687D01*
X42750Y11187D02*
X42594Y10875D01*
X42281Y10719D01*
X41969D01*
X41656Y10875D01*
X41500Y11187D01*
Y11500D01*
X41656Y11813D01*
X41969Y11969D01*
X42281D01*
X42594Y11813D01*
X42750Y11500D01*
Y11187D01*
X40250Y11969D02*
Y10875D01*
X40094Y10719D01*
X39781D01*
X39625Y10875D01*
Y11344D01*
Y10875D02*
X39469Y10719D01*
X39156D01*
X39000Y10875D01*
Y11969D01*
X33687Y11031D02*
X33844Y10875D01*
X34156Y10719D01*
X34625D01*
X34937Y10875D01*
X35094Y11031D01*
X35250Y11344D01*
Y11969D01*
X35094Y12281D01*
X34937Y12437D01*
X34625Y12594D01*
X34156D01*
X33844Y12437D01*
X33687Y12281D01*
X32750Y11969D02*
Y11187D01*
X32594Y10875D01*
X32281Y10719D01*
X31969D01*
X31656Y10875D01*
X31500Y11187D01*
Y11969D02*
Y10719D01*
X30250D02*
Y11969D01*
Y11500D02*
X30094Y11813D01*
X29781Y11969D01*
X29469D01*
X29156Y11813D01*
X27750Y10719D02*
Y11969D01*
Y11500D02*
X27594Y11813D01*
X27281Y11969D01*
X26969D01*
X26656Y11813D01*
X24000Y10875D02*
X24156Y10719D01*
X24469D01*
X24781D01*
X25094Y10875D01*
X25250Y11187D01*
Y11656D01*
X25094Y11813D01*
X24781Y11969D01*
X24469D01*
X24156Y11813D01*
X24000Y11656D01*
Y11500D01*
X24156Y11344D01*
X24469Y11187D01*
X24781D01*
X25094Y11344D01*
X25250Y11500D01*
X22750Y10719D02*
Y11969D01*
Y11500D02*
X22594Y11813D01*
X22281Y11969D01*
X21969D01*
X21656Y11813D01*
X21500Y11500D01*
Y10719D01*
X19990Y11969D02*
X19260D01*
X19625Y12281D02*
Y10875D01*
X19469Y10719D01*
X19313D01*
X19156Y10875D01*
X17281Y10719D02*
X16969Y11187D01*
Y12281D01*
X17281Y12594D01*
X42750Y20719D02*
Y22594D01*
X41656D01*
X41344Y22437D01*
X41187Y22125D01*
X41344Y21813D01*
X41656Y21656D01*
X42750D01*
X41656D02*
X41187Y20719D01*
X39000Y20875D02*
X39156Y20719D01*
X39469D01*
X39781D01*
X40094Y20875D01*
X40250Y21187D01*
Y21656D01*
X40094Y21813D01*
X39781Y21969D01*
X39469D01*
X39156Y21813D01*
X39000Y21656D01*
Y21500D01*
X39156Y21344D01*
X39469Y21187D01*
X39781D01*
X40094Y21344D01*
X40250Y21500D01*
X37750Y21813D02*
X37437Y21969D01*
X36969D01*
X36656Y21813D01*
X36500Y21500D01*
Y21031D01*
X36656Y20875D01*
X36969Y20719D01*
X37281D01*
X37594Y20875D01*
X37750Y21031D01*
Y21187D01*
X37594Y21344D01*
X37281Y21500D01*
X36969D01*
X36656Y21344D01*
X36500Y21187D01*
Y21031D02*
Y20719D01*
X34000Y21500D02*
X34156Y21813D01*
X34469Y21969D01*
X34781D01*
X35094Y21813D01*
X35250Y21500D01*
Y21187D01*
X35094Y20875D01*
X34781Y20719D01*
X34469D01*
X34156Y20875D01*
X34000Y21187D01*
Y20719D02*
Y22594D01*
X30250Y20719D02*
Y22594D01*
X28687D01*
X29000Y21656D02*
X30250D01*
Y20719D02*
X28687D01*
X27750D02*
Y21969D01*
Y21500D02*
X27594Y21813D01*
X27281Y21969D01*
X26969D01*
X26656Y21813D01*
X26500Y21500D01*
Y20719D01*
X25250Y21813D02*
X24937Y21969D01*
X24469D01*
X24156Y21813D01*
X24000Y21500D01*
Y21031D01*
X24156Y20875D01*
X24469Y20719D01*
X24781D01*
X25094Y20875D01*
X25250Y21031D01*
Y21187D01*
X25094Y21344D01*
X24781Y21500D01*
X24469D01*
X24156Y21344D01*
X24000Y21187D01*
Y21031D02*
Y20719D01*
X22750Y21187D02*
X22594Y20875D01*
X22281Y20719D01*
X21969D01*
X21656Y20875D01*
X21500Y21187D01*
Y21500D01*
X21656Y21813D01*
X21969Y21969D01*
X22281D01*
X22594Y21813D01*
X22750Y21500D01*
Y20719D02*
Y22594D01*
X19469Y20719D02*
X19625D01*
Y22594D01*
X16500Y20875D02*
X16656Y20719D01*
X16969D01*
X17281D01*
X17594Y20875D01*
X17750Y21187D01*
Y21656D01*
X17594Y21813D01*
X17281Y21969D01*
X16969D01*
X16656Y21813D01*
X16500Y21656D01*
Y21500D01*
X16656Y21344D01*
X16969Y21187D01*
X17281D01*
X17594Y21344D01*
X17750Y21500D01*
X42750Y30719D02*
Y32594D01*
X41187D01*
X41500Y31656D02*
X42750D01*
X40250Y31813D02*
X39937Y31969D01*
X39469D01*
X39156Y31813D01*
X39000Y31500D01*
Y31031D01*
X39156Y30875D01*
X39469Y30719D01*
X39781D01*
X40094Y30875D01*
X40250Y31031D01*
Y31187D01*
X40094Y31344D01*
X39781Y31500D01*
X39469D01*
X39156Y31344D01*
X39000Y31187D01*
Y31031D02*
Y30719D01*
X37750Y31969D02*
Y31187D01*
X37594Y30875D01*
X37281Y30719D01*
X36969D01*
X36656Y30875D01*
X36500Y31187D01*
Y31969D02*
Y30719D01*
X34469D02*
X34625D01*
Y32594D01*
X32490Y31969D02*
X31760D01*
X32125Y32281D02*
Y30875D01*
X31969Y30719D01*
X31813D01*
X31656Y30875D01*
X27750Y30719D02*
Y32594D01*
X26656D01*
X26344Y32437D01*
X26187Y32125D01*
X26344Y31813D01*
X26656Y31656D01*
X27750D01*
X26656D02*
X26187Y30719D01*
X24000Y30875D02*
X24156Y30719D01*
X24469D01*
X24781D01*
X25094Y30875D01*
X25250Y31187D01*
Y31656D01*
X25094Y31813D01*
X24781Y31969D01*
X24469D01*
X24156Y31813D01*
X24000Y31656D01*
Y31500D01*
X24156Y31344D01*
X24469Y31187D01*
X24781D01*
X25094Y31344D01*
X25250Y31500D01*
X22750Y30875D02*
X22437Y30719D01*
X21813D01*
X21500Y30875D01*
Y31187D01*
X21813Y31344D01*
X22437D01*
X22750Y31500D01*
Y31813D01*
X22437Y31969D01*
X21813D01*
X21500Y31813D01*
X19000Y30875D02*
X19156Y30719D01*
X19469D01*
X19781D01*
X20094Y30875D01*
X20250Y31187D01*
Y31656D01*
X20094Y31813D01*
X19781Y31969D01*
X19469D01*
X19156Y31813D01*
X19000Y31656D01*
Y31500D01*
X19156Y31344D01*
X19469Y31187D01*
X19781D01*
X20094Y31344D01*
X20250Y31500D01*
X17490Y31969D02*
X16760D01*
X17125Y32281D02*
Y30875D01*
X16969Y30719D01*
X16813D01*
X16656Y30875D01*
X52750Y40719D02*
Y42594D01*
Y41656D02*
X51187D01*
Y40719D02*
Y42594D01*
X49000Y40875D02*
X49156Y40719D01*
X49469D01*
X49781D01*
X50094Y40875D01*
X50250Y41187D01*
Y41656D01*
X50094Y41813D01*
X49781Y41969D01*
X49469D01*
X49156Y41813D01*
X49000Y41656D01*
Y41500D01*
X49156Y41344D01*
X49469Y41187D01*
X49781D01*
X50094Y41344D01*
X50250Y41500D01*
X47750Y41813D02*
X47437Y41969D01*
X46969D01*
X46656Y41813D01*
X46500Y41500D01*
Y41031D01*
X46656Y40875D01*
X46969Y40719D01*
X47281D01*
X47594Y40875D01*
X47750Y41031D01*
Y41187D01*
X47594Y41344D01*
X47281Y41500D01*
X46969D01*
X46656Y41344D01*
X46500Y41187D01*
Y41031D02*
Y40719D01*
X44000Y41500D02*
X44156Y41813D01*
X44469Y41969D01*
X44781D01*
X45094Y41813D01*
X45250Y41500D01*
Y41187D01*
X45094Y40875D01*
X44781Y40719D01*
X44469D01*
X44156Y40875D01*
X44000Y41187D01*
Y40719D02*
Y42594D01*
X40250Y41187D02*
X40094Y40875D01*
X39781Y40719D01*
X39156D01*
X38844Y40875D01*
X38687Y41187D01*
X38844Y41500D01*
X39156Y41656D01*
X39781D01*
X40094Y41813D01*
X40250Y42125D01*
X40094Y42437D01*
X39781Y42594D01*
X39156D01*
X38844Y42437D01*
X38687Y42125D01*
X36500Y40875D02*
X36656Y40719D01*
X36969D01*
X37281D01*
X37594Y40875D01*
X37750Y41187D01*
Y41656D01*
X37594Y41813D01*
X37281Y41969D01*
X36969D01*
X36656Y41813D01*
X36500Y41656D01*
Y41500D01*
X36656Y41344D01*
X36969Y41187D01*
X37281D01*
X37594Y41344D01*
X37750Y41500D01*
X34469Y40719D02*
X34625D01*
Y42594D01*
X31500Y40875D02*
X31656Y40719D01*
X31969D01*
X32281D01*
X32594Y40875D01*
X32750Y41187D01*
Y41656D01*
X32594Y41813D01*
X32281Y41969D01*
X31969D01*
X31656Y41813D01*
X31500Y41656D01*
Y41500D01*
X31656Y41344D01*
X31969Y41187D01*
X32281D01*
X32594Y41344D01*
X32750Y41500D01*
X29000Y41813D02*
X29313Y41969D01*
X29781D01*
X30094Y41813D01*
X30250Y41500D01*
Y41187D01*
X30094Y40875D01*
X29781Y40719D01*
X29313D01*
X29000Y40875D01*
X27490Y41969D02*
X26760D01*
X27125Y42281D02*
Y40875D01*
X26969Y40719D01*
X26813D01*
X26656Y40875D01*
X21500Y40719D02*
X22750D01*
X21656Y41813D01*
X21500Y42125D01*
X21656Y42437D01*
X21969Y42594D01*
X22437D01*
X22750Y42437D01*
X20094Y42125D02*
X19625Y42594D01*
X19156Y42125D01*
X17437Y40719D02*
X16813D01*
X17125D02*
Y42594D01*
X17437Y42281D01*
X60250Y50719D02*
Y52594D01*
X59313D01*
X59000Y52437D01*
X58844Y52281D01*
X58687Y51969D01*
Y51344D01*
X58844Y51031D01*
X59000Y50875D01*
X59313Y50719D01*
X60250D01*
X57750D02*
Y51969D01*
Y51500D02*
X57594Y51813D01*
X57281Y51969D01*
X56969D01*
X56656Y51813D01*
X54625Y50719D02*
Y51969D01*
Y52437D02*
X52750Y51969D02*
X52125Y50719D01*
X51500Y51969D01*
X49000Y50875D02*
X49156Y50719D01*
X49469D01*
X49781D01*
X50094Y50875D01*
X50250Y51187D01*
Y51656D01*
X50094Y51813D01*
X49781Y51969D01*
X49469D01*
X49156Y51813D01*
X49000Y51656D01*
Y51500D01*
X49156Y51344D01*
X49469Y51187D01*
X49781D01*
X50094Y51344D01*
X50250Y51500D01*
X43687Y51031D02*
X43844Y50875D01*
X44156Y50719D01*
X44625D01*
X44937Y50875D01*
X45094Y51031D01*
X45250Y51344D01*
Y51969D01*
X45094Y52281D01*
X44937Y52437D01*
X44625Y52594D01*
X44156D01*
X43844Y52437D01*
X43687Y52281D01*
X42750Y51813D02*
X42437Y51969D01*
X41969D01*
X41656Y51813D01*
X41500Y51500D01*
Y51031D01*
X41656Y50875D01*
X41969Y50719D01*
X42281D01*
X42594Y50875D01*
X42750Y51031D01*
Y51187D01*
X42594Y51344D01*
X42281Y51500D01*
X41969D01*
X41656Y51344D01*
X41500Y51187D01*
Y51031D02*
Y50719D01*
X40250Y51969D02*
Y50250D01*
Y51187D02*
X40094Y50875D01*
X39781Y50719D01*
X39469D01*
X39156Y50875D01*
X39000Y51187D01*
Y51500D01*
X39156Y51813D01*
X39469Y51969D01*
X39781D01*
X40094Y51813D01*
X40250Y51500D01*
Y51187D01*
X37750Y51813D02*
X37437Y51969D01*
X36969D01*
X36656Y51813D01*
X36500Y51500D01*
Y51031D01*
X36656Y50875D01*
X36969Y50719D01*
X37281D01*
X37594Y50875D01*
X37750Y51031D01*
Y51187D01*
X37594Y51344D01*
X37281Y51500D01*
X36969D01*
X36656Y51344D01*
X36500Y51187D01*
Y51031D02*
Y50719D01*
X34000Y51813D02*
X34313Y51969D01*
X34781D01*
X35094Y51813D01*
X35250Y51500D01*
Y51187D01*
X35094Y50875D01*
X34781Y50719D01*
X34313D01*
X34000Y50875D01*
X32125Y50719D02*
Y51969D01*
Y52437D02*
X29990Y51969D02*
X29260D01*
X29625Y52281D02*
Y50875D01*
X29469Y50719D01*
X29313D01*
X29156Y50875D01*
X27750Y51969D02*
X27594Y51344D01*
X27281Y51031D01*
X26969D01*
X26656Y51344D01*
X26500Y51969D01*
X26656Y51344D02*
X26813Y50719D01*
X26969Y50406D01*
X27281Y50250D01*
X27594Y50406D01*
X21500Y50719D02*
X22750D01*
X21656Y51813D01*
X21500Y52125D01*
X21656Y52437D01*
X21969Y52594D01*
X22437D01*
X22750Y52437D01*
X20094Y52125D02*
X19625Y52594D01*
X19156Y52125D01*
X17594Y50875D02*
X17281Y50719D01*
X16969D01*
X16656Y50875D01*
X16500Y51187D01*
Y52125D01*
X16656Y52437D01*
X16969Y52594D01*
X17281D01*
X17594Y52437D01*
X17750Y52125D01*
Y51187D01*
X17594Y50875D01*
X16656Y52437D01*
X60250Y60719D02*
Y62594D01*
X59313D01*
X59000Y62437D01*
X58844Y62281D01*
X58687Y61969D01*
Y61344D01*
X58844Y61031D01*
X59000Y60875D01*
X59313Y60719D01*
X60250D01*
X57750D02*
Y61969D01*
Y61500D02*
X57594Y61813D01*
X57281Y61969D01*
X56969D01*
X56656Y61813D01*
X54625Y60719D02*
Y61969D01*
Y62437D02*
X52750Y61969D02*
X52125Y60719D01*
X51500Y61969D01*
X49000Y60875D02*
X49156Y60719D01*
X49469D01*
X49781D01*
X50094Y60875D01*
X50250Y61187D01*
Y61656D01*
X50094Y61813D01*
X49781Y61969D01*
X49469D01*
X49156Y61813D01*
X49000Y61656D01*
Y61500D01*
X49156Y61344D01*
X49469Y61187D01*
X49781D01*
X50094Y61344D01*
X50250Y61500D01*
X43687Y61031D02*
X43844Y60875D01*
X44156Y60719D01*
X44625D01*
X44937Y60875D01*
X45094Y61031D01*
X45250Y61344D01*
Y61969D01*
X45094Y62281D01*
X44937Y62437D01*
X44625Y62594D01*
X44156D01*
X43844Y62437D01*
X43687Y62281D01*
X42750Y61813D02*
X42437Y61969D01*
X41969D01*
X41656Y61813D01*
X41500Y61500D01*
Y61031D01*
X41656Y60875D01*
X41969Y60719D01*
X42281D01*
X42594Y60875D01*
X42750Y61031D01*
Y61187D01*
X42594Y61344D01*
X42281Y61500D01*
X41969D01*
X41656Y61344D01*
X41500Y61187D01*
Y61031D02*
Y60719D01*
X40250Y61969D02*
Y60250D01*
Y61187D02*
X40094Y60875D01*
X39781Y60719D01*
X39469D01*
X39156Y60875D01*
X39000Y61187D01*
Y61500D01*
X39156Y61813D01*
X39469Y61969D01*
X39781D01*
X40094Y61813D01*
X40250Y61500D01*
Y61187D01*
X37750Y61813D02*
X37437Y61969D01*
X36969D01*
X36656Y61813D01*
X36500Y61500D01*
Y61031D01*
X36656Y60875D01*
X36969Y60719D01*
X37281D01*
X37594Y60875D01*
X37750Y61031D01*
Y61187D01*
X37594Y61344D01*
X37281Y61500D01*
X36969D01*
X36656Y61344D01*
X36500Y61187D01*
Y61031D02*
Y60719D01*
X34000Y61813D02*
X34313Y61969D01*
X34781D01*
X35094Y61813D01*
X35250Y61500D01*
Y61187D01*
X35094Y60875D01*
X34781Y60719D01*
X34313D01*
X34000Y60875D01*
X32125Y60719D02*
Y61969D01*
Y62437D02*
X29990Y61969D02*
X29260D01*
X29625Y62281D02*
Y60875D01*
X29469Y60719D01*
X29313D01*
X29156Y60875D01*
X27750Y61969D02*
X27594Y61344D01*
X27281Y61031D01*
X26969D01*
X26656Y61344D01*
X26500Y61969D01*
X26656Y61344D02*
X26813Y60719D01*
X26969Y60406D01*
X27281Y60250D01*
X27594Y60406D01*
X21500Y60719D02*
X22750D01*
X21656Y61813D01*
X21500Y62125D01*
X21656Y62437D01*
X21969Y62594D01*
X22437D01*
X22750Y62437D01*
X20094Y62125D02*
X19625Y62594D01*
X19156Y62125D01*
X17437Y60719D02*
X16813D01*
X17125D02*
Y62594D01*
X17437Y62281D01*
X52750Y70719D02*
Y72594D01*
Y71656D02*
X51187D01*
Y70719D02*
Y72594D01*
X49000Y70875D02*
X49156Y70719D01*
X49469D01*
X49781D01*
X50094Y70875D01*
X50250Y71187D01*
Y71656D01*
X50094Y71813D01*
X49781Y71969D01*
X49469D01*
X49156Y71813D01*
X49000Y71656D01*
Y71500D01*
X49156Y71344D01*
X49469Y71187D01*
X49781D01*
X50094Y71344D01*
X50250Y71500D01*
X47750Y71813D02*
X47437Y71969D01*
X46969D01*
X46656Y71813D01*
X46500Y71500D01*
Y71031D01*
X46656Y70875D01*
X46969Y70719D01*
X47281D01*
X47594Y70875D01*
X47750Y71031D01*
Y71187D01*
X47594Y71344D01*
X47281Y71500D01*
X46969D01*
X46656Y71344D01*
X46500Y71187D01*
Y71031D02*
Y70719D01*
X44000Y71500D02*
X44156Y71813D01*
X44469Y71969D01*
X44781D01*
X45094Y71813D01*
X45250Y71500D01*
Y71187D01*
X45094Y70875D01*
X44781Y70719D01*
X44469D01*
X44156Y70875D01*
X44000Y71187D01*
Y70719D02*
Y72594D01*
X40250Y71187D02*
X40094Y70875D01*
X39781Y70719D01*
X39156D01*
X38844Y70875D01*
X38687Y71187D01*
X38844Y71500D01*
X39156Y71656D01*
X39781D01*
X40094Y71813D01*
X40250Y72125D01*
X40094Y72437D01*
X39781Y72594D01*
X39156D01*
X38844Y72437D01*
X38687Y72125D01*
X36500Y70875D02*
X36656Y70719D01*
X36969D01*
X37281D01*
X37594Y70875D01*
X37750Y71187D01*
Y71656D01*
X37594Y71813D01*
X37281Y71969D01*
X36969D01*
X36656Y71813D01*
X36500Y71656D01*
Y71500D01*
X36656Y71344D01*
X36969Y71187D01*
X37281D01*
X37594Y71344D01*
X37750Y71500D01*
X34469Y70719D02*
X34625D01*
Y72594D01*
X31500Y70875D02*
X31656Y70719D01*
X31969D01*
X32281D01*
X32594Y70875D01*
X32750Y71187D01*
Y71656D01*
X32594Y71813D01*
X32281Y71969D01*
X31969D01*
X31656Y71813D01*
X31500Y71656D01*
Y71500D01*
X31656Y71344D01*
X31969Y71187D01*
X32281D01*
X32594Y71344D01*
X32750Y71500D01*
X29000Y71813D02*
X29313Y71969D01*
X29781D01*
X30094Y71813D01*
X30250Y71500D01*
Y71187D01*
X30094Y70875D01*
X29781Y70719D01*
X29313D01*
X29000Y70875D01*
X27490Y71969D02*
X26760D01*
X27125Y72281D02*
Y70875D01*
X26969Y70719D01*
X26813D01*
X26656Y70875D01*
X21500Y70719D02*
X22750D01*
X21656Y71813D01*
X21500Y72125D01*
X21656Y72437D01*
X21969Y72594D01*
X22437D01*
X22750Y72437D01*
X20094Y72125D02*
X19625Y72594D01*
X19156Y72125D01*
X17594Y70875D02*
X17281Y70719D01*
X16969D01*
X16656Y70875D01*
X16500Y71187D01*
Y72125D01*
X16656Y72437D01*
X16969Y72594D01*
X17281D01*
X17594Y72437D01*
X17750Y72125D01*
Y71187D01*
X17594Y70875D01*
X16656Y72437D01*
X20250Y80719D02*
Y82594D01*
X18687Y80719D01*
Y82594D01*
X16187Y81031D02*
X16344Y80875D01*
X16656Y80719D01*
X17125D01*
X17437Y80875D01*
X17594Y81031D01*
X17750Y81344D01*
Y81969D01*
X17594Y82281D01*
X17437Y82437D01*
X17125Y82594D01*
X16656D01*
X16344Y82437D01*
X16187Y82281D01*
X50250Y90719D02*
Y92594D01*
X49156D01*
X48844Y92437D01*
X48687Y92125D01*
X48844Y91813D01*
X49156Y91656D01*
X50250D01*
X49156D02*
X48687Y90719D01*
X46500Y90875D02*
X46656Y90719D01*
X46969D01*
X47281D01*
X47594Y90875D01*
X47750Y91187D01*
Y91656D01*
X47594Y91813D01*
X47281Y91969D01*
X46969D01*
X46656Y91813D01*
X46500Y91656D01*
Y91500D01*
X46656Y91344D01*
X46969Y91187D01*
X47281D01*
X47594Y91344D01*
X47750Y91500D01*
X44990Y91969D02*
X44260D01*
X44625Y92281D02*
Y90875D01*
X44469Y90719D01*
X44313D01*
X44156Y90875D01*
X42750Y91969D02*
Y91187D01*
X42594Y90875D01*
X42281Y90719D01*
X41969D01*
X41656Y90875D01*
X41500Y91187D01*
Y91969D02*
Y90719D01*
X40250D02*
Y91969D01*
Y91500D02*
X40094Y91813D01*
X39781Y91969D01*
X39469D01*
X39156Y91813D01*
X37750Y90719D02*
Y91969D01*
Y91500D02*
X37594Y91813D01*
X37281Y91969D01*
X36969D01*
X36656Y91813D01*
X36500Y91500D01*
Y90719D01*
X31969D02*
Y92594D01*
X32750D02*
X31187D01*
X30250Y91187D02*
X30094Y90875D01*
X29781Y90719D01*
X29469D01*
X29156Y90875D01*
X29000Y91187D01*
Y91500D01*
X29156Y91813D01*
X29469Y91969D01*
X29781D01*
X30094Y91813D01*
X30250Y91500D01*
Y91187D01*
X25250Y92594D02*
X23687D01*
X25250Y90719D01*
X23687D01*
X21500Y90875D02*
X21656Y90719D01*
X21969D01*
X22281D01*
X22594Y90875D01*
X22750Y91187D01*
Y91656D01*
X22594Y91813D01*
X22281Y91969D01*
X21969D01*
X21656Y91813D01*
X21500Y91656D01*
Y91500D01*
X21656Y91344D01*
X21969Y91187D01*
X22281D01*
X22594Y91344D01*
X22750Y91500D01*
X20250Y90719D02*
Y91969D01*
Y91500D02*
X20094Y91813D01*
X19781Y91969D01*
X19469D01*
X19156Y91813D01*
X17750Y91187D02*
X17594Y90875D01*
X17281Y90719D01*
X16969D01*
X16656Y90875D01*
X16500Y91187D01*
Y91500D01*
X16656Y91813D01*
X16969Y91969D01*
X17281D01*
X17594Y91813D01*
X17750Y91500D01*
Y91187D01*
X27281Y100719D02*
X26656D01*
X26969D02*
Y102594D01*
X27281D02*
X26656D01*
X25250Y100719D02*
Y101969D01*
Y101500D02*
X25094Y101813D01*
X24781Y101969D01*
X24469D01*
X24156Y101813D01*
X24000Y101500D01*
Y100719D01*
X21500Y101500D02*
X21656Y101813D01*
X21969Y101969D01*
X22281D01*
X22594Y101813D01*
X22750Y101500D01*
Y101187D01*
X22594Y100875D01*
X22281Y100719D01*
X21969D01*
X21656Y100875D01*
X21500Y101187D01*
Y100719D02*
Y102594D01*
X19000Y100875D02*
X19156Y100719D01*
X19469D01*
X19781D01*
X20094Y100875D01*
X20250Y101187D01*
Y101656D01*
X20094Y101813D01*
X19781Y101969D01*
X19469D01*
X19156Y101813D01*
X19000Y101656D01*
Y101500D01*
X19156Y101344D01*
X19469Y101187D01*
X19781D01*
X20094Y101344D01*
X20250Y101500D01*
X17750Y100719D02*
X16500Y101969D01*
Y100719D02*
X17750Y101969D01*
X42750Y110719D02*
Y112594D01*
X41813D01*
X41500Y112437D01*
X41344Y112281D01*
X41187Y111969D01*
Y111344D01*
X41344Y111031D01*
X41500Y110875D01*
X41813Y110719D01*
X42750D01*
X40250D02*
Y111969D01*
Y111500D02*
X40094Y111813D01*
X39781Y111969D01*
X39469D01*
X39156Y111813D01*
X37125Y110719D02*
Y111969D01*
Y112437D02*
X35250Y111969D02*
X34625Y110719D01*
X34000Y111969D01*
X31500Y110875D02*
X31656Y110719D01*
X31969D01*
X32281D01*
X32594Y110875D01*
X32750Y111187D01*
Y111656D01*
X32594Y111813D01*
X32281Y111969D01*
X31969D01*
X31656Y111813D01*
X31500Y111656D01*
Y111500D01*
X31656Y111344D01*
X31969Y111187D01*
X32281D01*
X32594Y111344D01*
X32750Y111500D01*
X27750Y110719D02*
Y112594D01*
X26656D01*
X26344Y112437D01*
X26187Y112125D01*
X26344Y111813D01*
X26656Y111656D01*
X27750D01*
X26656D02*
X26187Y110719D01*
X24000Y110875D02*
X24156Y110719D01*
X24469D01*
X24781D01*
X25094Y110875D01*
X25250Y111187D01*
Y111656D01*
X25094Y111813D01*
X24781Y111969D01*
X24469D01*
X24156Y111813D01*
X24000Y111656D01*
Y111500D01*
X24156Y111344D01*
X24469Y111187D01*
X24781D01*
X25094Y111344D01*
X25250Y111500D01*
X22750Y111813D02*
X22437Y111969D01*
X21969D01*
X21656Y111813D01*
X21500Y111500D01*
Y111031D01*
X21656Y110875D01*
X21969Y110719D01*
X22281D01*
X22594Y110875D01*
X22750Y111031D01*
Y111187D01*
X22594Y111344D01*
X22281Y111500D01*
X21969D01*
X21656Y111344D01*
X21500Y111187D01*
Y111031D02*
Y110719D01*
X19000Y111500D02*
X19156Y111813D01*
X19469Y111969D01*
X19781D01*
X20094Y111813D01*
X20250Y111500D01*
Y111187D01*
X20094Y110875D01*
X19781Y110719D01*
X19469D01*
X19156Y110875D01*
X19000Y111187D01*
Y110719D02*
Y112594D01*
X17750Y111969D02*
X17594Y111344D01*
X17281Y111031D01*
X16969D01*
X16656Y111344D01*
X16500Y111969D01*
X16656Y111344D02*
X16813Y110719D01*
X16969Y110406D01*
X17281Y110250D01*
X17594Y110406D01*
X39156Y121656D02*
X38844Y121500D01*
X38687Y121187D01*
X38844Y120875D01*
X39156Y120719D01*
X40250D01*
Y122594D01*
X39156D01*
X38844Y122437D01*
X38687Y122125D01*
X38844Y121813D01*
X39156Y121656D01*
X40250D01*
X37750Y121969D02*
X37594Y121344D01*
X37281Y121031D01*
X36969D01*
X36656Y121344D01*
X36500Y121969D01*
X36656Y121344D02*
X36813Y120719D01*
X36969Y120406D01*
X37281Y120250D01*
X37594Y120406D01*
X34990Y121969D02*
X34260D01*
X34625Y122281D02*
Y120875D01*
X34469Y120719D01*
X34313D01*
X34156Y120875D01*
X31500D02*
X31656Y120719D01*
X31969D01*
X32281D01*
X32594Y120875D01*
X32750Y121187D01*
Y121656D01*
X32594Y121813D01*
X32281Y121969D01*
X31969D01*
X31656Y121813D01*
X31500Y121656D01*
Y121500D01*
X31656Y121344D01*
X31969Y121187D01*
X32281D01*
X32594Y121344D01*
X32750Y121500D01*
X26187Y121031D02*
X26344Y120875D01*
X26656Y120719D01*
X27125D01*
X27437Y120875D01*
X27594Y121031D01*
X27750Y121344D01*
Y121969D01*
X27594Y122281D01*
X27437Y122437D01*
X27125Y122594D01*
X26656D01*
X26344Y122437D01*
X26187Y122281D01*
X24469Y120719D02*
X24625D01*
Y122594D01*
X22750Y121187D02*
X22594Y120875D01*
X22281Y120719D01*
X21969D01*
X21656Y120875D01*
X21500Y121187D01*
Y121500D01*
X21656Y121813D01*
X21969Y121969D01*
X22281D01*
X22594Y121813D01*
X22750Y121500D01*
Y121187D01*
X19000Y121813D02*
X19313Y121969D01*
X19781D01*
X20094Y121813D01*
X20250Y121500D01*
Y121187D01*
X20094Y120875D01*
X19781Y120719D01*
X19313D01*
X19000Y120875D01*
X17750Y120719D02*
Y122594D01*
Y121344D02*
X17281D01*
X16500Y121969D01*
X17281Y121344D02*
X16500Y120719D01*
X50250Y130719D02*
Y132594D01*
X49313D01*
X49000Y132437D01*
X48844Y132281D01*
X48687Y131969D01*
Y131344D01*
X48844Y131031D01*
X49000Y130875D01*
X49313Y130719D01*
X50250D01*
X47750D02*
Y131969D01*
Y131500D02*
X47594Y131813D01*
X47281Y131969D01*
X46969D01*
X46656Y131813D01*
X44625Y130719D02*
Y131969D01*
Y132437D02*
X42750Y131969D02*
X42125Y130719D01*
X41500Y131969D01*
X39000Y130875D02*
X39156Y130719D01*
X39469D01*
X39781D01*
X40094Y130875D01*
X40250Y131187D01*
Y131656D01*
X40094Y131813D01*
X39781Y131969D01*
X39469D01*
X39156Y131813D01*
X39000Y131656D01*
Y131500D01*
X39156Y131344D01*
X39469Y131187D01*
X39781D01*
X40094Y131344D01*
X40250Y131500D01*
X35250Y131187D02*
X35094Y130875D01*
X34781Y130719D01*
X34156D01*
X33844Y130875D01*
X33687Y131187D01*
X33844Y131500D01*
X34156Y131656D01*
X34781D01*
X35094Y131813D01*
X35250Y132125D01*
X35094Y132437D01*
X34781Y132594D01*
X34156D01*
X33844Y132437D01*
X33687Y132125D01*
X31500Y130875D02*
X31656Y130719D01*
X31969D01*
X32281D01*
X32594Y130875D01*
X32750Y131187D01*
Y131656D01*
X32594Y131813D01*
X32281Y131969D01*
X31969D01*
X31656Y131813D01*
X31500Y131656D01*
Y131500D01*
X31656Y131344D01*
X31969Y131187D01*
X32281D01*
X32594Y131344D01*
X32750Y131500D01*
X29469Y130719D02*
X29625D01*
Y132594D01*
X26500Y130875D02*
X26656Y130719D01*
X26969D01*
X27281D01*
X27594Y130875D01*
X27750Y131187D01*
Y131656D01*
X27594Y131813D01*
X27281Y131969D01*
X26969D01*
X26656Y131813D01*
X26500Y131656D01*
Y131500D01*
X26656Y131344D01*
X26969Y131187D01*
X27281D01*
X27594Y131344D01*
X27750Y131500D01*
X24000Y131813D02*
X24313Y131969D01*
X24781D01*
X25094Y131813D01*
X25250Y131500D01*
Y131187D01*
X25094Y130875D01*
X24781Y130719D01*
X24313D01*
X24000Y130875D01*
X22490Y131969D02*
X21760D01*
X22125Y132281D02*
Y130875D01*
X21969Y130719D01*
X21813D01*
X21656Y130875D01*
X17437Y130719D02*
X16813D01*
X17125D02*
Y132594D01*
X17437Y132281D01*
X50250Y140719D02*
Y142594D01*
X49313D01*
X49000Y142437D01*
X48844Y142281D01*
X48687Y141969D01*
Y141344D01*
X48844Y141031D01*
X49000Y140875D01*
X49313Y140719D01*
X50250D01*
X47750D02*
Y141969D01*
Y141500D02*
X47594Y141813D01*
X47281Y141969D01*
X46969D01*
X46656Y141813D01*
X44625Y140719D02*
Y141969D01*
Y142437D02*
X42750Y141969D02*
X42125Y140719D01*
X41500Y141969D01*
X39000Y140875D02*
X39156Y140719D01*
X39469D01*
X39781D01*
X40094Y140875D01*
X40250Y141187D01*
Y141656D01*
X40094Y141813D01*
X39781Y141969D01*
X39469D01*
X39156Y141813D01*
X39000Y141656D01*
Y141500D01*
X39156Y141344D01*
X39469Y141187D01*
X39781D01*
X40094Y141344D01*
X40250Y141500D01*
X35250Y141187D02*
X35094Y140875D01*
X34781Y140719D01*
X34156D01*
X33844Y140875D01*
X33687Y141187D01*
X33844Y141500D01*
X34156Y141656D01*
X34781D01*
X35094Y141813D01*
X35250Y142125D01*
X35094Y142437D01*
X34781Y142594D01*
X34156D01*
X33844Y142437D01*
X33687Y142125D01*
X31500Y140875D02*
X31656Y140719D01*
X31969D01*
X32281D01*
X32594Y140875D01*
X32750Y141187D01*
Y141656D01*
X32594Y141813D01*
X32281Y141969D01*
X31969D01*
X31656Y141813D01*
X31500Y141656D01*
Y141500D01*
X31656Y141344D01*
X31969Y141187D01*
X32281D01*
X32594Y141344D01*
X32750Y141500D01*
X29469Y140719D02*
X29625D01*
Y142594D01*
X26500Y140875D02*
X26656Y140719D01*
X26969D01*
X27281D01*
X27594Y140875D01*
X27750Y141187D01*
Y141656D01*
X27594Y141813D01*
X27281Y141969D01*
X26969D01*
X26656Y141813D01*
X26500Y141656D01*
Y141500D01*
X26656Y141344D01*
X26969Y141187D01*
X27281D01*
X27594Y141344D01*
X27750Y141500D01*
X24000Y141813D02*
X24313Y141969D01*
X24781D01*
X25094Y141813D01*
X25250Y141500D01*
Y141187D01*
X25094Y140875D01*
X24781Y140719D01*
X24313D01*
X24000Y140875D01*
X22490Y141969D02*
X21760D01*
X22125Y142281D02*
Y140875D01*
X21969Y140719D01*
X21813D01*
X21656Y140875D01*
X16500Y140719D02*
X17750D01*
X16656Y141813D01*
X16500Y142125D01*
X16656Y142437D01*
X16969Y142594D01*
X17437D01*
X17750Y142437D01*
X50250Y150719D02*
Y152594D01*
X49313D01*
X49000Y152437D01*
X48844Y152281D01*
X48687Y151969D01*
Y151344D01*
X48844Y151031D01*
X49000Y150875D01*
X49313Y150719D01*
X50250D01*
X47750D02*
Y151969D01*
Y151500D02*
X47594Y151813D01*
X47281Y151969D01*
X46969D01*
X46656Y151813D01*
X44625Y150719D02*
Y151969D01*
Y152437D02*
X42750Y151969D02*
X42125Y150719D01*
X41500Y151969D01*
X39000Y150875D02*
X39156Y150719D01*
X39469D01*
X39781D01*
X40094Y150875D01*
X40250Y151187D01*
Y151656D01*
X40094Y151813D01*
X39781Y151969D01*
X39469D01*
X39156Y151813D01*
X39000Y151656D01*
Y151500D01*
X39156Y151344D01*
X39469Y151187D01*
X39781D01*
X40094Y151344D01*
X40250Y151500D01*
X35250Y151187D02*
X35094Y150875D01*
X34781Y150719D01*
X34156D01*
X33844Y150875D01*
X33687Y151187D01*
X33844Y151500D01*
X34156Y151656D01*
X34781D01*
X35094Y151813D01*
X35250Y152125D01*
X35094Y152437D01*
X34781Y152594D01*
X34156D01*
X33844Y152437D01*
X33687Y152125D01*
X31500Y150875D02*
X31656Y150719D01*
X31969D01*
X32281D01*
X32594Y150875D01*
X32750Y151187D01*
Y151656D01*
X32594Y151813D01*
X32281Y151969D01*
X31969D01*
X31656Y151813D01*
X31500Y151656D01*
Y151500D01*
X31656Y151344D01*
X31969Y151187D01*
X32281D01*
X32594Y151344D01*
X32750Y151500D01*
X29469Y150719D02*
X29625D01*
Y152594D01*
X26500Y150875D02*
X26656Y150719D01*
X26969D01*
X27281D01*
X27594Y150875D01*
X27750Y151187D01*
Y151656D01*
X27594Y151813D01*
X27281Y151969D01*
X26969D01*
X26656Y151813D01*
X26500Y151656D01*
Y151500D01*
X26656Y151344D01*
X26969Y151187D01*
X27281D01*
X27594Y151344D01*
X27750Y151500D01*
X24000Y151813D02*
X24313Y151969D01*
X24781D01*
X25094Y151813D01*
X25250Y151500D01*
Y151187D01*
X25094Y150875D01*
X24781Y150719D01*
X24313D01*
X24000Y150875D01*
X22490Y151969D02*
X21760D01*
X22125Y152281D02*
Y150875D01*
X21969Y150719D01*
X21813D01*
X21656Y150875D01*
X17594D02*
X17281Y150719D01*
X16969D01*
X16656Y150875D01*
X16500Y151187D01*
X16656Y151500D01*
X16969Y151656D01*
X17281D01*
X16969D02*
X16656Y151813D01*
X16500Y152125D01*
X16656Y152437D01*
X16969Y152594D01*
X17281D01*
X17594Y152437D01*
X50250Y160719D02*
Y162594D01*
X49313D01*
X49000Y162437D01*
X48844Y162281D01*
X48687Y161969D01*
Y161344D01*
X48844Y161031D01*
X49000Y160875D01*
X49313Y160719D01*
X50250D01*
X47750D02*
Y161969D01*
Y161500D02*
X47594Y161813D01*
X47281Y161969D01*
X46969D01*
X46656Y161813D01*
X44625Y160719D02*
Y161969D01*
Y162437D02*
X42750Y161969D02*
X42125Y160719D01*
X41500Y161969D01*
X39000Y160875D02*
X39156Y160719D01*
X39469D01*
X39781D01*
X40094Y160875D01*
X40250Y161187D01*
Y161656D01*
X40094Y161813D01*
X39781Y161969D01*
X39469D01*
X39156Y161813D01*
X39000Y161656D01*
Y161500D01*
X39156Y161344D01*
X39469Y161187D01*
X39781D01*
X40094Y161344D01*
X40250Y161500D01*
X35250Y161187D02*
X35094Y160875D01*
X34781Y160719D01*
X34156D01*
X33844Y160875D01*
X33687Y161187D01*
X33844Y161500D01*
X34156Y161656D01*
X34781D01*
X35094Y161813D01*
X35250Y162125D01*
X35094Y162437D01*
X34781Y162594D01*
X34156D01*
X33844Y162437D01*
X33687Y162125D01*
X31500Y160875D02*
X31656Y160719D01*
X31969D01*
X32281D01*
X32594Y160875D01*
X32750Y161187D01*
Y161656D01*
X32594Y161813D01*
X32281Y161969D01*
X31969D01*
X31656Y161813D01*
X31500Y161656D01*
Y161500D01*
X31656Y161344D01*
X31969Y161187D01*
X32281D01*
X32594Y161344D01*
X32750Y161500D01*
X29469Y160719D02*
X29625D01*
Y162594D01*
X26500Y160875D02*
X26656Y160719D01*
X26969D01*
X27281D01*
X27594Y160875D01*
X27750Y161187D01*
Y161656D01*
X27594Y161813D01*
X27281Y161969D01*
X26969D01*
X26656Y161813D01*
X26500Y161656D01*
Y161500D01*
X26656Y161344D01*
X26969Y161187D01*
X27281D01*
X27594Y161344D01*
X27750Y161500D01*
X24000Y161813D02*
X24313Y161969D01*
X24781D01*
X25094Y161813D01*
X25250Y161500D01*
Y161187D01*
X25094Y160875D01*
X24781Y160719D01*
X24313D01*
X24000Y160875D01*
X22490Y161969D02*
X21760D01*
X22125Y162281D02*
Y160875D01*
X21969Y160719D01*
X21813D01*
X21656Y160875D01*
X16969Y160719D02*
Y162594D01*
X17750Y161344D01*
X16500D01*
X37750Y170719D02*
Y172594D01*
X36813D01*
X36500Y172437D01*
X36344Y172281D01*
X36187Y171969D01*
Y171344D01*
X36344Y171031D01*
X36500Y170875D01*
X36813Y170719D01*
X37750D01*
X34625D02*
Y171969D01*
Y172437D02*
X32750Y170719D02*
Y171969D01*
Y171500D02*
X32594Y171813D01*
X32281Y171969D01*
X31969D01*
X31656Y171813D01*
X29000Y170875D02*
X29156Y170719D01*
X29469D01*
X29781D01*
X30094Y170875D01*
X30250Y171187D01*
Y171656D01*
X30094Y171813D01*
X29781Y171969D01*
X29469D01*
X29156Y171813D01*
X29000Y171656D01*
Y171500D01*
X29156Y171344D01*
X29469Y171187D01*
X29781D01*
X30094Y171344D01*
X30250Y171500D01*
X26500Y171813D02*
X26813Y171969D01*
X27281D01*
X27594Y171813D01*
X27750Y171500D01*
Y171187D01*
X27594Y170875D01*
X27281Y170719D01*
X26813D01*
X26500Y170875D01*
X24990Y171969D02*
X24260D01*
X24625Y172281D02*
Y170875D01*
X24469Y170719D01*
X24313D01*
X24156Y170875D01*
X22125Y170719D02*
Y171969D01*
Y172437D02*
X20250Y171187D02*
X20094Y170875D01*
X19781Y170719D01*
X19469D01*
X19156Y170875D01*
X19000Y171187D01*
Y171500D01*
X19156Y171813D01*
X19469Y171969D01*
X19781D01*
X20094Y171813D01*
X20250Y171500D01*
Y171187D01*
X17750Y170719D02*
Y171969D01*
Y171500D02*
X17594Y171813D01*
X17281Y171969D01*
X16969D01*
X16656Y171813D01*
X16500Y171500D01*
Y170719D01*
X25250Y181187D02*
X25094Y180875D01*
X24781Y180719D01*
X24156D01*
X23844Y180875D01*
X23687Y181187D01*
X23844Y181500D01*
X24156Y181656D01*
X24781D01*
X25094Y181813D01*
X25250Y182125D01*
X25094Y182437D01*
X24781Y182594D01*
X24156D01*
X23844Y182437D01*
X23687Y182125D01*
X22490Y181969D02*
X21760D01*
X22125Y182281D02*
Y180875D01*
X21969Y180719D01*
X21813D01*
X21656Y180875D01*
X19000D02*
X19156Y180719D01*
X19469D01*
X19781D01*
X20094Y180875D01*
X20250Y181187D01*
Y181656D01*
X20094Y181813D01*
X19781Y181969D01*
X19469D01*
X19156Y181813D01*
X19000Y181656D01*
Y181500D01*
X19156Y181344D01*
X19469Y181187D01*
X19781D01*
X20094Y181344D01*
X20250Y181500D01*
X17750Y181969D02*
Y180250D01*
Y181187D02*
X17594Y180875D01*
X17281Y180719D01*
X16969D01*
X16656Y180875D01*
X16500Y181187D01*
Y181500D01*
X16656Y181813D01*
X16969Y181969D01*
X17281D01*
X17594Y181813D01*
X17750Y181500D01*
Y181187D01*
X52750Y190719D02*
Y192594D01*
X51187Y190719D01*
Y192594D01*
X48687Y191031D02*
X48844Y190875D01*
X49156Y190719D01*
X49625D01*
X49937Y190875D01*
X50094Y191031D01*
X50250Y191344D01*
Y191969D01*
X50094Y192281D01*
X49937Y192437D01*
X49625Y192594D01*
X49156D01*
X48844Y192437D01*
X48687Y192281D01*
X44156Y190719D02*
X44469Y191187D01*
Y192281D01*
X44156Y192594D01*
X42750D02*
X42594Y190719D01*
X41969Y191656D01*
X41344Y190719D01*
X41187Y192594D01*
X40250Y190719D02*
Y191969D01*
Y191500D02*
X40094Y191813D01*
X39781Y191969D01*
X39469D01*
X39156Y191813D01*
X37125Y190719D02*
Y191969D01*
Y192437D02*
X34990Y191969D02*
X34260D01*
X34625Y192281D02*
Y190875D01*
X34469Y190719D01*
X34313D01*
X34156Y190875D01*
X31500D02*
X31656Y190719D01*
X31969D01*
X32281D01*
X32594Y190875D01*
X32750Y191187D01*
Y191656D01*
X32594Y191813D01*
X32281Y191969D01*
X31969D01*
X31656Y191813D01*
X31500Y191656D01*
Y191500D01*
X31656Y191344D01*
X31969Y191187D01*
X32281D01*
X32594Y191344D01*
X32750Y191500D01*
X27750Y190719D02*
Y192594D01*
X26813D01*
X26500Y192437D01*
X26344Y192281D01*
X26187Y191969D01*
Y191344D01*
X26344Y191031D01*
X26500Y190875D01*
X26813Y190719D01*
X27750D01*
X25250Y191813D02*
X24937Y191969D01*
X24469D01*
X24156Y191813D01*
X24000Y191500D01*
Y191031D01*
X24156Y190875D01*
X24469Y190719D01*
X24781D01*
X25094Y190875D01*
X25250Y191031D01*
Y191187D01*
X25094Y191344D01*
X24781Y191500D01*
X24469D01*
X24156Y191344D01*
X24000Y191187D01*
Y191031D02*
Y190719D01*
X22490Y191969D02*
X21760D01*
X22125Y192281D02*
Y190875D01*
X21969Y190719D01*
X21813D01*
X21656Y190875D01*
X20250Y191813D02*
X19937Y191969D01*
X19469D01*
X19156Y191813D01*
X19000Y191500D01*
Y191031D01*
X19156Y190875D01*
X19469Y190719D01*
X19781D01*
X20094Y190875D01*
X20250Y191031D01*
Y191187D01*
X20094Y191344D01*
X19781Y191500D01*
X19469D01*
X19156Y191344D01*
X19000Y191187D01*
Y191031D02*
Y190719D01*
X17281D02*
X16969Y191187D01*
Y192281D01*
X17281Y192594D01*
X45250Y202594D02*
X45094Y200719D01*
X44469Y201656D01*
X43844Y200719D01*
X43687Y202594D01*
X42750Y200719D02*
Y201969D01*
Y201500D02*
X42594Y201813D01*
X42281Y201969D01*
X41969D01*
X41656Y201813D01*
X39625Y200719D02*
Y201969D01*
Y202437D02*
X37490Y201969D02*
X36760D01*
X37125Y202281D02*
Y200875D01*
X36969Y200719D01*
X36813D01*
X36656Y200875D01*
X34000D02*
X34156Y200719D01*
X34469D01*
X34781D01*
X35094Y200875D01*
X35250Y201187D01*
Y201656D01*
X35094Y201813D01*
X34781Y201969D01*
X34469D01*
X34156Y201813D01*
X34000Y201656D01*
Y201500D01*
X34156Y201344D01*
X34469Y201187D01*
X34781D01*
X35094Y201344D01*
X35250Y201500D01*
X30250Y200719D02*
Y202594D01*
X28687D01*
X29000Y201656D02*
X30250D01*
Y200719D02*
X28687D01*
X27750D02*
Y201969D01*
Y201500D02*
X27594Y201813D01*
X27281Y201969D01*
X26969D01*
X26656Y201813D01*
X26500Y201500D01*
Y200719D01*
X25250Y201813D02*
X24937Y201969D01*
X24469D01*
X24156Y201813D01*
X24000Y201500D01*
Y201031D01*
X24156Y200875D01*
X24469Y200719D01*
X24781D01*
X25094Y200875D01*
X25250Y201031D01*
Y201187D01*
X25094Y201344D01*
X24781Y201500D01*
X24469D01*
X24156Y201344D01*
X24000Y201187D01*
Y201031D02*
Y200719D01*
X22750Y201187D02*
X22594Y200875D01*
X22281Y200719D01*
X21969D01*
X21656Y200875D01*
X21500Y201187D01*
Y201500D01*
X21656Y201813D01*
X21969Y201969D01*
X22281D01*
X22594Y201813D01*
X22750Y201500D01*
Y200719D02*
Y202594D01*
X19469Y200719D02*
X19625D01*
Y202594D01*
X16500Y200875D02*
X16656Y200719D01*
X16969D01*
X17281D01*
X17594Y200875D01*
X17750Y201187D01*
Y201656D01*
X17594Y201813D01*
X17281Y201969D01*
X16969D01*
X16656Y201813D01*
X16500Y201656D01*
Y201500D01*
X16656Y201344D01*
X16969Y201187D01*
X17281D01*
X17594Y201344D01*
X17750Y201500D01*
X43687Y211031D02*
X43844Y210875D01*
X44156Y210719D01*
X44625D01*
X44937Y210875D01*
X45094Y211031D01*
X45250Y211344D01*
Y211969D01*
X45094Y212281D01*
X44937Y212437D01*
X44625Y212594D01*
X44156D01*
X43844Y212437D01*
X43687Y212281D01*
X42750Y211969D02*
X42594Y211344D01*
X42281Y211031D01*
X41969D01*
X41656Y211344D01*
X41500Y211969D01*
X41656Y211344D02*
X41813Y210719D01*
X41969Y210406D01*
X42281Y210250D01*
X42594Y210406D01*
X39469Y210719D02*
X39625D01*
Y212594D01*
X37125Y210719D02*
Y211969D01*
Y212437D02*
X35250Y210719D02*
Y211969D01*
Y211500D02*
X35094Y211813D01*
X34781Y211969D01*
X34469D01*
X34156Y211813D01*
X34000Y211500D01*
Y210719D01*
X31500Y211500D02*
X31656Y211813D01*
X31969Y211969D01*
X32281D01*
X32594Y211813D01*
X32750Y211500D01*
Y211187D01*
X32594Y210875D01*
X32281Y210719D01*
X31969D01*
X31656Y210875D01*
X31500Y211187D01*
Y210719D02*
Y212594D01*
X29000Y210875D02*
X29156Y210719D01*
X29469D01*
X29781D01*
X30094Y210875D01*
X30250Y211187D01*
Y211656D01*
X30094Y211813D01*
X29781Y211969D01*
X29469D01*
X29156Y211813D01*
X29000Y211656D01*
Y211500D01*
X29156Y211344D01*
X29469Y211187D01*
X29781D01*
X30094Y211344D01*
X30250Y211500D01*
X27750Y210719D02*
Y211969D01*
Y211500D02*
X27594Y211813D01*
X27281Y211969D01*
X26969D01*
X26656Y211813D01*
X22594Y210875D02*
X22281Y210719D01*
X21969D01*
X21656Y210875D01*
X21500Y211187D01*
Y212125D01*
X21656Y212437D01*
X21969Y212594D01*
X22281D01*
X22594Y212437D01*
X22750Y212125D01*
Y211187D01*
X22594Y210875D01*
X21656Y212437D01*
X20094Y210875D02*
X19781Y210719D01*
X19469D01*
X19156Y210875D01*
X19000Y211187D01*
Y212125D01*
X19156Y212437D01*
X19469Y212594D01*
X19781D01*
X20094Y212437D01*
X20250Y212125D01*
Y211187D01*
X20094Y210875D01*
X19156Y212437D01*
X17594Y210875D02*
X17281Y210719D01*
X16969D01*
X16656Y210875D01*
X16500Y211187D01*
Y212125D01*
X16656Y212437D01*
X16969Y212594D01*
X17281D01*
X17594Y212437D01*
X17750Y212125D01*
Y211187D01*
X17594Y210875D01*
X16656Y212437D01*
X60250Y220719D02*
Y222594D01*
X58687Y220719D01*
Y222594D01*
X56187Y221031D02*
X56344Y220875D01*
X56656Y220719D01*
X57125D01*
X57437Y220875D01*
X57594Y221031D01*
X57750Y221344D01*
Y221969D01*
X57594Y222281D01*
X57437Y222437D01*
X57125Y222594D01*
X56656D01*
X56344Y222437D01*
X56187Y222281D01*
X51656Y220719D02*
X51969Y221187D01*
Y222281D01*
X51656Y222594D01*
X50250D02*
X50094Y220719D01*
X49469Y221656D01*
X48844Y220719D01*
X48687Y222594D01*
X47750Y220719D02*
Y221969D01*
Y221500D02*
X47594Y221813D01*
X47281Y221969D01*
X46969D01*
X46656Y221813D01*
X44625Y220719D02*
Y221969D01*
Y222437D02*
X42490Y221969D02*
X41760D01*
X42125Y222281D02*
Y220875D01*
X41969Y220719D01*
X41813D01*
X41656Y220875D01*
X39000D02*
X39156Y220719D01*
X39469D01*
X39781D01*
X40094Y220875D01*
X40250Y221187D01*
Y221656D01*
X40094Y221813D01*
X39781Y221969D01*
X39469D01*
X39156Y221813D01*
X39000Y221656D01*
Y221500D01*
X39156Y221344D01*
X39469Y221187D01*
X39781D01*
X40094Y221344D01*
X40250Y221500D01*
X35250Y220719D02*
Y222594D01*
X34156D01*
X33844Y222437D01*
X33687Y222125D01*
X33844Y221813D01*
X34156Y221656D01*
X35250D01*
X32750Y220719D02*
Y221969D01*
Y221500D02*
X32594Y221813D01*
X32281Y221969D01*
X31969D01*
X31656Y221813D01*
X30250Y221187D02*
X30094Y220875D01*
X29781Y220719D01*
X29469D01*
X29156Y220875D01*
X29000Y221187D01*
Y221500D01*
X29156Y221813D01*
X29469Y221969D01*
X29781D01*
X30094Y221813D01*
X30250Y221500D01*
Y221187D01*
X27490Y221969D02*
X26760D01*
X27125Y222281D02*
Y220875D01*
X26969Y220719D01*
X26813D01*
X26656Y220875D01*
X24000D02*
X24156Y220719D01*
X24469D01*
X24781D01*
X25094Y220875D01*
X25250Y221187D01*
Y221656D01*
X25094Y221813D01*
X24781Y221969D01*
X24469D01*
X24156Y221813D01*
X24000Y221656D01*
Y221500D01*
X24156Y221344D01*
X24469Y221187D01*
X24781D01*
X25094Y221344D01*
X25250Y221500D01*
X21500Y221813D02*
X21813Y221969D01*
X22281D01*
X22594Y221813D01*
X22750Y221500D01*
Y221187D01*
X22594Y220875D01*
X22281Y220719D01*
X21813D01*
X21500Y220875D01*
X19990Y221969D02*
X19260D01*
X19625Y222281D02*
Y220875D01*
X19469Y220719D01*
X19313D01*
X19156Y220875D01*
X17281Y220719D02*
X16969Y221187D01*
Y222281D01*
X17281Y222594D01*
X62750Y230719D02*
Y232594D01*
X61187Y230719D01*
Y232594D01*
X58687Y231031D02*
X58844Y230875D01*
X59156Y230719D01*
X59625D01*
X59937Y230875D01*
X60094Y231031D01*
X60250Y231344D01*
Y231969D01*
X60094Y232281D01*
X59937Y232437D01*
X59625Y232594D01*
X59156D01*
X58844Y232437D01*
X58687Y232281D01*
X54156Y230719D02*
X54469Y231187D01*
Y232281D01*
X54156Y232594D01*
X52750Y230719D02*
Y232594D01*
X51656D01*
X51344Y232437D01*
X51187Y232125D01*
X51344Y231813D01*
X51656Y231656D01*
X52750D01*
X51656D02*
X51187Y230719D01*
X49000Y230875D02*
X49156Y230719D01*
X49469D01*
X49781D01*
X50094Y230875D01*
X50250Y231187D01*
Y231656D01*
X50094Y231813D01*
X49781Y231969D01*
X49469D01*
X49156Y231813D01*
X49000Y231656D01*
Y231500D01*
X49156Y231344D01*
X49469Y231187D01*
X49781D01*
X50094Y231344D01*
X50250Y231500D01*
X47750Y231813D02*
X47437Y231969D01*
X46969D01*
X46656Y231813D01*
X46500Y231500D01*
Y231031D01*
X46656Y230875D01*
X46969Y230719D01*
X47281D01*
X47594Y230875D01*
X47750Y231031D01*
Y231187D01*
X47594Y231344D01*
X47281Y231500D01*
X46969D01*
X46656Y231344D01*
X46500Y231187D01*
Y231031D02*
Y230719D01*
X44000Y231500D02*
X44156Y231813D01*
X44469Y231969D01*
X44781D01*
X45094Y231813D01*
X45250Y231500D01*
Y231187D01*
X45094Y230875D01*
X44781Y230719D01*
X44469D01*
X44156Y230875D01*
X44000Y231187D01*
Y230719D02*
Y232594D01*
X40250Y230719D02*
Y232594D01*
X39313D01*
X39000Y232437D01*
X38844Y232281D01*
X38687Y231969D01*
Y231344D01*
X38844Y231031D01*
X39000Y230875D01*
X39313Y230719D01*
X40250D01*
X37750Y231813D02*
X37437Y231969D01*
X36969D01*
X36656Y231813D01*
X36500Y231500D01*
Y231031D01*
X36656Y230875D01*
X36969Y230719D01*
X37281D01*
X37594Y230875D01*
X37750Y231031D01*
Y231187D01*
X37594Y231344D01*
X37281Y231500D01*
X36969D01*
X36656Y231344D01*
X36500Y231187D01*
Y231031D02*
Y230719D01*
X34990Y231969D02*
X34260D01*
X34625Y232281D02*
Y230875D01*
X34469Y230719D01*
X34313D01*
X34156Y230875D01*
X32750Y231813D02*
X32437Y231969D01*
X31969D01*
X31656Y231813D01*
X31500Y231500D01*
Y231031D01*
X31656Y230875D01*
X31969Y230719D01*
X32281D01*
X32594Y230875D01*
X32750Y231031D01*
Y231187D01*
X32594Y231344D01*
X32281Y231500D01*
X31969D01*
X31656Y231344D01*
X31500Y231187D01*
Y231031D02*
Y230719D01*
X26187Y231031D02*
X26344Y230875D01*
X26656Y230719D01*
X27125D01*
X27437Y230875D01*
X27594Y231031D01*
X27750Y231344D01*
Y231969D01*
X27594Y232281D01*
X27437Y232437D01*
X27125Y232594D01*
X26656D01*
X26344Y232437D01*
X26187Y232281D01*
X25250Y231187D02*
X25094Y230875D01*
X24781Y230719D01*
X24469D01*
X24156Y230875D01*
X24000Y231187D01*
Y231500D01*
X24156Y231813D01*
X24469Y231969D01*
X24781D01*
X25094Y231813D01*
X25250Y231500D01*
Y231187D01*
X22750Y230719D02*
Y231969D01*
Y231813D02*
X22594Y231969D01*
X22281D01*
X22125Y231813D01*
Y231344D01*
Y231813D02*
X21969Y231969D01*
X21656D01*
X21500Y231813D01*
Y230719D01*
X20250Y231969D02*
Y230250D01*
Y231187D02*
X20094Y230875D01*
X19781Y230719D01*
X19469D01*
X19156Y230875D01*
X19000Y231187D01*
Y231500D01*
X19156Y231813D01*
X19469Y231969D01*
X19781D01*
X20094Y231813D01*
X20250Y231500D01*
Y231187D01*
X17281Y230719D02*
X16969Y231187D01*
Y232281D01*
X17281Y232594D01*
X42750Y242594D02*
X42594Y240719D01*
X41969Y241656D01*
X41344Y240719D01*
X41187Y242594D01*
X40250Y240719D02*
Y241969D01*
Y241500D02*
X40094Y241813D01*
X39781Y241969D01*
X39469D01*
X39156Y241813D01*
X37125Y240719D02*
Y241969D01*
Y242437D02*
X34990Y241969D02*
X34260D01*
X34625Y242281D02*
Y240875D01*
X34469Y240719D01*
X34313D01*
X34156Y240875D01*
X31500D02*
X31656Y240719D01*
X31969D01*
X32281D01*
X32594Y240875D01*
X32750Y241187D01*
Y241656D01*
X32594Y241813D01*
X32281Y241969D01*
X31969D01*
X31656Y241813D01*
X31500Y241656D01*
Y241500D01*
X31656Y241344D01*
X31969Y241187D01*
X32281D01*
X32594Y241344D01*
X32750Y241500D01*
X27750Y240719D02*
Y242594D01*
X26187D01*
X26500Y241656D02*
X27750D01*
X25250Y241813D02*
X24937Y241969D01*
X24469D01*
X24156Y241813D01*
X24000Y241500D01*
Y241031D01*
X24156Y240875D01*
X24469Y240719D01*
X24781D01*
X25094Y240875D01*
X25250Y241031D01*
Y241187D01*
X25094Y241344D01*
X24781Y241500D01*
X24469D01*
X24156Y241344D01*
X24000Y241187D01*
Y241031D02*
Y240719D01*
X22750Y241969D02*
Y241187D01*
X22594Y240875D01*
X22281Y240719D01*
X21969D01*
X21656Y240875D01*
X21500Y241187D01*
Y241969D02*
Y240719D01*
X19469D02*
X19625D01*
Y242594D01*
X17490Y241969D02*
X16760D01*
X17125Y242281D02*
Y240875D01*
X16969Y240719D01*
X16813D01*
X16656Y240875D01*
X20250Y250719D02*
Y252594D01*
X18687Y250719D01*
Y252594D01*
X16187Y251031D02*
X16344Y250875D01*
X16656Y250719D01*
X17125D01*
X17437Y250875D01*
X17594Y251031D01*
X17750Y251344D01*
Y251969D01*
X17594Y252281D01*
X17437Y252437D01*
X17125Y252594D01*
X16656D01*
X16344Y252437D01*
X16187Y252281D01*
X30250Y5719D02*
Y7594D01*
X28687D01*
X29000Y6656D02*
X30250D01*
X27750Y5719D02*
Y7594D01*
X26187D01*
X26500Y6656D02*
X27750D01*
X23687Y6031D02*
X23844Y5875D01*
X24156Y5719D01*
X24625D01*
X24937Y5875D01*
X25094Y6031D01*
X25250Y6344D01*
Y6969D01*
X25094Y7281D01*
X24937Y7437D01*
X24625Y7594D01*
X24156D01*
X23844Y7437D01*
X23687Y7281D01*
X0Y0D02*
M02*
