G04 DesignSpark PCB Gerber Version 10.0 Build 5299*
%FSLAX35Y35*%
%MOIN*%
%ADD11C,0.01500*%
%ADD146C,0.03189*%
%ADD10C,0.06000*%
X0Y0D02*
D02*
D10*
X10250Y10250D03*
Y20250D03*
Y30250D03*
Y40250D03*
Y50250D03*
Y60250D03*
Y70250D03*
Y80250D03*
Y90250D03*
Y100250D03*
Y110250D03*
Y120250D03*
Y130250D03*
Y140250D03*
Y150250D03*
Y160250D03*
Y170250D03*
Y180250D03*
Y190250D03*
Y200250D03*
Y210250D03*
Y220250D03*
Y230250D03*
Y240250D03*
Y250250D03*
X75250Y10250D03*
Y20250D03*
Y30250D03*
Y40250D03*
Y50250D03*
Y60250D03*
Y70250D03*
Y80250D03*
Y90250D03*
Y100250D03*
Y110250D03*
Y120250D03*
Y130250D03*
Y140250D03*
Y150250D03*
Y160250D03*
Y170250D03*
Y180250D03*
Y190250D03*
Y200250D03*
Y210250D03*
Y220250D03*
Y230250D03*
Y240250D03*
Y250250D03*
D02*
D11*
X10250Y90250D02*
X60250D01*
X10250Y100250D02*
X25250D01*
Y95250D01*
X65250D01*
X10250Y130250D02*
X50250D01*
Y100250D01*
X75250D01*
X10250Y140250D02*
X55250D01*
Y110250D01*
X75250D01*
X10250Y150250D02*
X60250D01*
Y120250D01*
X75250D01*
X10250Y160250D02*
X65250D01*
Y130250D01*
X75250D01*
X10250Y170250D02*
X55250D01*
X10250Y180250D02*
X50250D01*
X10250Y190250D02*
X30250D01*
X10250Y200250D02*
X35250D01*
X10250Y210250D02*
X40250D01*
X25250Y225250D02*
X60250D01*
Y230250D01*
X75250D01*
X30250Y85250D02*
X70250D01*
Y90250D01*
X75250D01*
X35250Y80250D02*
X75250D01*
X40250Y30250D02*
X75250D01*
X50250Y60250D02*
X75250D01*
X55250Y50250D02*
X75250D01*
X55250Y70250D02*
X75250D01*
Y10250D02*
X70250D01*
Y15250D01*
X45250D01*
X75250Y140250D02*
X70250D01*
Y165250D01*
X20250D01*
X75250Y150250D02*
Y140250D01*
Y160250D02*
Y150250D01*
Y170250D02*
Y160250D01*
Y180250D02*
X60250D01*
Y220250D01*
X10250D01*
D02*
D146*
X20250Y165250D03*
X25250Y225250D03*
X30250Y85250D03*
Y190250D03*
X35250Y80250D03*
Y200250D03*
X40250Y30250D03*
Y210250D03*
X45250Y15250D03*
X50250Y60250D03*
Y180250D03*
X55250Y50250D03*
Y70250D03*
Y170250D03*
X60250Y90250D03*
X65250Y95250D03*
X0Y0D02*
M02*
