G05
M48
INCH,TZ
FMAT,2
T1C000.01614
T2C000.03500
%
T001
X0.20250Y1.65250
X0.25250Y2.25250
X0.30250Y0.85250
X0.30250Y1.90250
X0.35250Y0.80250
X0.35250Y2.00250
X0.40250Y0.30250
X0.40250Y2.10250
X0.45250Y0.15250
X0.50250Y0.60250
X0.50250Y1.80250
X0.55250Y0.50250
X0.55250Y0.70250
X0.55250Y1.70250
X0.60250Y0.90250
X0.65250Y0.95250
T002
X0.10250Y0.10250
X0.10250Y0.20250
X0.10250Y0.30250
X0.10250Y0.40250
X0.10250Y0.50250
X0.10250Y0.60250
X0.10250Y0.70250
X0.10250Y0.80250
X0.10250Y0.90250
X0.10250Y1.00250
X0.10250Y1.10250
X0.10250Y1.20250
X0.10250Y1.30250
X0.10250Y1.40250
X0.10250Y1.50250
X0.10250Y1.60250
X0.10250Y1.70250
X0.10250Y1.80250
X0.10250Y1.90250
X0.10250Y2.00250
X0.10250Y2.10250
X0.10250Y2.20250
X0.10250Y2.30250
X0.10250Y2.40250
X0.10250Y2.50250
X0.75250Y0.10250
X0.75250Y0.20250
X0.75250Y0.30250
X0.75250Y0.40250
X0.75250Y0.50250
X0.75250Y0.60250
X0.75250Y0.70250
X0.75250Y0.80250
X0.75250Y0.90250
X0.75250Y1.00250
X0.75250Y1.10250
X0.75250Y1.20250
X0.75250Y1.30250
X0.75250Y1.40250
X0.75250Y1.50250
X0.75250Y1.60250
X0.75250Y1.70250
X0.75250Y1.80250
X0.75250Y1.90250
X0.75250Y2.00250
X0.75250Y2.10250
X0.75250Y2.20250
X0.75250Y2.30250
X0.75250Y2.40250
X0.75250Y2.50250
M30
