G04 DesignSpark PCB Gerber Version 10.0 Build 5299*
%FSLAX35Y35*%
%MOIN*%
%ADD14C,0.00500*%
%ADD13C,0.10000*%
X0Y0D02*
D02*
D13*
X10250Y10250D03*
Y20250D03*
Y30250D03*
Y40250D03*
Y50250D03*
Y60250D03*
Y70250D03*
Y80250D03*
Y90250D03*
Y100250D03*
Y110250D03*
Y120250D03*
Y130250D03*
Y140250D03*
Y150250D03*
Y160250D03*
Y170250D03*
Y180250D03*
Y190250D03*
Y200250D03*
Y210250D03*
Y220250D03*
Y230250D03*
Y240250D03*
Y250250D03*
X20250Y10250D03*
Y20250D03*
Y30250D03*
Y40250D03*
Y50250D03*
Y60250D03*
Y70250D03*
Y80250D03*
Y90250D03*
Y100250D03*
Y110250D03*
Y120250D03*
Y130250D03*
Y140250D03*
Y150250D03*
Y160250D03*
Y170250D03*
Y180250D03*
Y190250D03*
Y200250D03*
Y210250D03*
Y220250D03*
Y230250D03*
Y240250D03*
Y250250D03*
X30250Y10250D03*
Y20250D03*
Y30250D03*
Y40250D03*
Y50250D03*
Y60250D03*
Y70250D03*
Y80250D03*
Y90250D03*
Y100250D03*
Y110250D03*
Y120250D03*
Y130250D03*
Y140250D03*
Y150250D03*
Y160250D03*
Y170250D03*
Y180250D03*
Y190250D03*
Y200250D03*
Y210250D03*
Y220250D03*
Y230250D03*
Y240250D03*
Y250250D03*
X40250Y10250D03*
Y20250D03*
Y30250D03*
Y40250D03*
Y50250D03*
Y60250D03*
Y70250D03*
Y80250D03*
Y90250D03*
Y100250D03*
Y110250D03*
Y120250D03*
Y130250D03*
Y140250D03*
Y150250D03*
Y160250D03*
Y170250D03*
Y180250D03*
Y190250D03*
Y200250D03*
Y210250D03*
Y220250D03*
Y230250D03*
Y240250D03*
Y250250D03*
D02*
D14*
X20250Y16187D02*
Y19937D01*
X22125D01*
X22750Y19625D01*
X23063Y19313D01*
X23375Y18687D01*
Y17437D01*
X23063Y16813D01*
X22750Y16500D01*
X22125Y16187D01*
X20250D01*
Y26187D02*
Y29937D01*
X22125D01*
X22750Y29625D01*
X23063Y29313D01*
X23375Y28687D01*
Y27437D01*
X23063Y26813D01*
X22750Y26500D01*
X22125Y26187D01*
X20250D01*
Y36187D02*
Y39937D01*
X22125D01*
X22750Y39625D01*
X23063Y39313D01*
X23375Y38687D01*
Y37437D01*
X23063Y36813D01*
X22750Y36500D01*
X22125Y36187D01*
X20250D01*
Y46187D02*
Y49937D01*
X22125D01*
X22750Y49625D01*
X23063Y49313D01*
X23375Y48687D01*
Y47437D01*
X23063Y46813D01*
X22750Y46500D01*
X22125Y46187D01*
X20250D01*
Y56187D02*
Y59937D01*
X22125D01*
X22750Y59625D01*
X23063Y59313D01*
X23375Y58687D01*
Y57437D01*
X23063Y56813D01*
X22750Y56500D01*
X22125Y56187D01*
X20250D01*
Y66187D02*
Y69937D01*
X22125D01*
X22750Y69625D01*
X23063Y69313D01*
X23375Y68687D01*
Y67437D01*
X23063Y66813D01*
X22750Y66500D01*
X22125Y66187D01*
X20250D01*
Y76187D02*
Y79937D01*
X22125D01*
X22750Y79625D01*
X23063Y79313D01*
X23375Y78687D01*
Y77437D01*
X23063Y76813D01*
X22750Y76500D01*
X22125Y76187D01*
X20250D01*
Y86187D02*
Y89937D01*
X22125D01*
X22750Y89625D01*
X23063Y89313D01*
X23375Y88687D01*
Y87437D01*
X23063Y86813D01*
X22750Y86500D01*
X22125Y86187D01*
X20250D01*
Y96187D02*
Y99937D01*
X22125D01*
X22750Y99625D01*
X23063Y99313D01*
X23375Y98687D01*
Y97437D01*
X23063Y96813D01*
X22750Y96500D01*
X22125Y96187D01*
X20250D01*
Y106187D02*
Y109937D01*
X22125D01*
X22750Y109625D01*
X23063Y109313D01*
X23375Y108687D01*
Y107437D01*
X23063Y106813D01*
X22750Y106500D01*
X22125Y106187D01*
X20250D01*
Y116187D02*
Y119937D01*
X22125D01*
X22750Y119625D01*
X23063Y119313D01*
X23375Y118687D01*
Y117437D01*
X23063Y116813D01*
X22750Y116500D01*
X22125Y116187D01*
X20250D01*
Y126187D02*
Y129937D01*
X22125D01*
X22750Y129625D01*
X23063Y129313D01*
X23375Y128687D01*
Y127437D01*
X23063Y126813D01*
X22750Y126500D01*
X22125Y126187D01*
X20250D01*
Y136187D02*
Y139937D01*
X22125D01*
X22750Y139625D01*
X23063Y139313D01*
X23375Y138687D01*
Y137437D01*
X23063Y136813D01*
X22750Y136500D01*
X22125Y136187D01*
X20250D01*
Y146187D02*
Y149937D01*
X22125D01*
X22750Y149625D01*
X23063Y149313D01*
X23375Y148687D01*
Y147437D01*
X23063Y146813D01*
X22750Y146500D01*
X22125Y146187D01*
X20250D01*
Y156187D02*
Y159937D01*
X22125D01*
X22750Y159625D01*
X23063Y159313D01*
X23375Y158687D01*
Y157437D01*
X23063Y156813D01*
X22750Y156500D01*
X22125Y156187D01*
X20250D01*
Y166187D02*
Y169937D01*
X22125D01*
X22750Y169625D01*
X23063Y169313D01*
X23375Y168687D01*
Y167437D01*
X23063Y166813D01*
X22750Y166500D01*
X22125Y166187D01*
X20250D01*
Y176187D02*
Y179937D01*
X22125D01*
X22750Y179625D01*
X23063Y179313D01*
X23375Y178687D01*
Y177437D01*
X23063Y176813D01*
X22750Y176500D01*
X22125Y176187D01*
X20250D01*
Y186187D02*
Y189937D01*
X22125D01*
X22750Y189625D01*
X23063Y189313D01*
X23375Y188687D01*
Y187437D01*
X23063Y186813D01*
X22750Y186500D01*
X22125Y186187D01*
X20250D01*
Y196187D02*
Y199937D01*
X22125D01*
X22750Y199625D01*
X23063Y199313D01*
X23375Y198687D01*
Y197437D01*
X23063Y196813D01*
X22750Y196500D01*
X22125Y196187D01*
X20250D01*
Y206187D02*
Y209937D01*
X22125D01*
X22750Y209625D01*
X23063Y209313D01*
X23375Y208687D01*
Y207437D01*
X23063Y206813D01*
X22750Y206500D01*
X22125Y206187D01*
X20250D01*
Y216187D02*
Y219937D01*
X22125D01*
X22750Y219625D01*
X23063Y219313D01*
X23375Y218687D01*
Y217437D01*
X23063Y216813D01*
X22750Y216500D01*
X22125Y216187D01*
X20250D01*
Y226187D02*
Y229937D01*
X22125D01*
X22750Y229625D01*
X23063Y229313D01*
X23375Y228687D01*
Y227437D01*
X23063Y226813D01*
X22750Y226500D01*
X22125Y226187D01*
X20250D01*
Y236187D02*
Y239937D01*
X22125D01*
X22750Y239625D01*
X23063Y239313D01*
X23375Y238687D01*
Y237437D01*
X23063Y236813D01*
X22750Y236500D01*
X22125Y236187D01*
X20250D01*
Y246187D02*
Y249937D01*
X22125D01*
X22750Y249625D01*
X23063Y249313D01*
X23375Y248687D01*
Y247437D01*
X23063Y246813D01*
X22750Y246500D01*
X22125Y246187D01*
X20250D01*
Y256187D02*
Y259937D01*
X22125D01*
X22750Y259625D01*
X23063Y259313D01*
X23375Y258687D01*
Y257437D01*
X23063Y256813D01*
X22750Y256500D01*
X22125Y256187D01*
X20250D01*
X30250Y16187D02*
Y19937D01*
X32125D01*
X32750Y19625D01*
X33063Y19313D01*
X33375Y18687D01*
Y17437D01*
X33063Y16813D01*
X32750Y16500D01*
X32125Y16187D01*
X30250D01*
Y26187D02*
Y29937D01*
X32125D01*
X32750Y29625D01*
X33063Y29313D01*
X33375Y28687D01*
Y27437D01*
X33063Y26813D01*
X32750Y26500D01*
X32125Y26187D01*
X30250D01*
Y36187D02*
Y39937D01*
X32125D01*
X32750Y39625D01*
X33063Y39313D01*
X33375Y38687D01*
Y37437D01*
X33063Y36813D01*
X32750Y36500D01*
X32125Y36187D01*
X30250D01*
Y46187D02*
Y49937D01*
X32125D01*
X32750Y49625D01*
X33063Y49313D01*
X33375Y48687D01*
Y47437D01*
X33063Y46813D01*
X32750Y46500D01*
X32125Y46187D01*
X30250D01*
Y56187D02*
Y59937D01*
X32125D01*
X32750Y59625D01*
X33063Y59313D01*
X33375Y58687D01*
Y57437D01*
X33063Y56813D01*
X32750Y56500D01*
X32125Y56187D01*
X30250D01*
Y66187D02*
Y69937D01*
X32125D01*
X32750Y69625D01*
X33063Y69313D01*
X33375Y68687D01*
Y67437D01*
X33063Y66813D01*
X32750Y66500D01*
X32125Y66187D01*
X30250D01*
Y76187D02*
Y79937D01*
X32125D01*
X32750Y79625D01*
X33063Y79313D01*
X33375Y78687D01*
Y77437D01*
X33063Y76813D01*
X32750Y76500D01*
X32125Y76187D01*
X30250D01*
Y86187D02*
Y89937D01*
X32125D01*
X32750Y89625D01*
X33063Y89313D01*
X33375Y88687D01*
Y87437D01*
X33063Y86813D01*
X32750Y86500D01*
X32125Y86187D01*
X30250D01*
Y96187D02*
Y99937D01*
X32125D01*
X32750Y99625D01*
X33063Y99313D01*
X33375Y98687D01*
Y97437D01*
X33063Y96813D01*
X32750Y96500D01*
X32125Y96187D01*
X30250D01*
Y106187D02*
Y109937D01*
X32125D01*
X32750Y109625D01*
X33063Y109313D01*
X33375Y108687D01*
Y107437D01*
X33063Y106813D01*
X32750Y106500D01*
X32125Y106187D01*
X30250D01*
Y116187D02*
Y119937D01*
X32125D01*
X32750Y119625D01*
X33063Y119313D01*
X33375Y118687D01*
Y117437D01*
X33063Y116813D01*
X32750Y116500D01*
X32125Y116187D01*
X30250D01*
Y126187D02*
Y129937D01*
X32125D01*
X32750Y129625D01*
X33063Y129313D01*
X33375Y128687D01*
Y127437D01*
X33063Y126813D01*
X32750Y126500D01*
X32125Y126187D01*
X30250D01*
Y136187D02*
Y139937D01*
X32125D01*
X32750Y139625D01*
X33063Y139313D01*
X33375Y138687D01*
Y137437D01*
X33063Y136813D01*
X32750Y136500D01*
X32125Y136187D01*
X30250D01*
Y146187D02*
Y149937D01*
X32125D01*
X32750Y149625D01*
X33063Y149313D01*
X33375Y148687D01*
Y147437D01*
X33063Y146813D01*
X32750Y146500D01*
X32125Y146187D01*
X30250D01*
Y156187D02*
Y159937D01*
X32125D01*
X32750Y159625D01*
X33063Y159313D01*
X33375Y158687D01*
Y157437D01*
X33063Y156813D01*
X32750Y156500D01*
X32125Y156187D01*
X30250D01*
Y166187D02*
Y169937D01*
X32125D01*
X32750Y169625D01*
X33063Y169313D01*
X33375Y168687D01*
Y167437D01*
X33063Y166813D01*
X32750Y166500D01*
X32125Y166187D01*
X30250D01*
Y176187D02*
Y179937D01*
X32125D01*
X32750Y179625D01*
X33063Y179313D01*
X33375Y178687D01*
Y177437D01*
X33063Y176813D01*
X32750Y176500D01*
X32125Y176187D01*
X30250D01*
Y186187D02*
Y189937D01*
X32125D01*
X32750Y189625D01*
X33063Y189313D01*
X33375Y188687D01*
Y187437D01*
X33063Y186813D01*
X32750Y186500D01*
X32125Y186187D01*
X30250D01*
Y196187D02*
Y199937D01*
X32125D01*
X32750Y199625D01*
X33063Y199313D01*
X33375Y198687D01*
Y197437D01*
X33063Y196813D01*
X32750Y196500D01*
X32125Y196187D01*
X30250D01*
Y206187D02*
Y209937D01*
X32125D01*
X32750Y209625D01*
X33063Y209313D01*
X33375Y208687D01*
Y207437D01*
X33063Y206813D01*
X32750Y206500D01*
X32125Y206187D01*
X30250D01*
Y216187D02*
Y219937D01*
X32125D01*
X32750Y219625D01*
X33063Y219313D01*
X33375Y218687D01*
Y217437D01*
X33063Y216813D01*
X32750Y216500D01*
X32125Y216187D01*
X30250D01*
Y226187D02*
Y229937D01*
X32125D01*
X32750Y229625D01*
X33063Y229313D01*
X33375Y228687D01*
Y227437D01*
X33063Y226813D01*
X32750Y226500D01*
X32125Y226187D01*
X30250D01*
Y236187D02*
Y239937D01*
X32125D01*
X32750Y239625D01*
X33063Y239313D01*
X33375Y238687D01*
Y237437D01*
X33063Y236813D01*
X32750Y236500D01*
X32125Y236187D01*
X30250D01*
Y246187D02*
Y249937D01*
X32125D01*
X32750Y249625D01*
X33063Y249313D01*
X33375Y248687D01*
Y247437D01*
X33063Y246813D01*
X32750Y246500D01*
X32125Y246187D01*
X30250D01*
Y256187D02*
Y259937D01*
X32125D01*
X32750Y259625D01*
X33063Y259313D01*
X33375Y258687D01*
Y257437D01*
X33063Y256813D01*
X32750Y256500D01*
X32125Y256187D01*
X30250D01*
X40250Y16187D02*
Y19937D01*
X42125D01*
X42750Y19625D01*
X43063Y19313D01*
X43375Y18687D01*
Y17437D01*
X43063Y16813D01*
X42750Y16500D01*
X42125Y16187D01*
X40250D01*
Y26187D02*
Y29937D01*
X42125D01*
X42750Y29625D01*
X43063Y29313D01*
X43375Y28687D01*
Y27437D01*
X43063Y26813D01*
X42750Y26500D01*
X42125Y26187D01*
X40250D01*
Y36187D02*
Y39937D01*
X42125D01*
X42750Y39625D01*
X43063Y39313D01*
X43375Y38687D01*
Y37437D01*
X43063Y36813D01*
X42750Y36500D01*
X42125Y36187D01*
X40250D01*
Y46187D02*
Y49937D01*
X42125D01*
X42750Y49625D01*
X43063Y49313D01*
X43375Y48687D01*
Y47437D01*
X43063Y46813D01*
X42750Y46500D01*
X42125Y46187D01*
X40250D01*
Y56187D02*
Y59937D01*
X42125D01*
X42750Y59625D01*
X43063Y59313D01*
X43375Y58687D01*
Y57437D01*
X43063Y56813D01*
X42750Y56500D01*
X42125Y56187D01*
X40250D01*
Y66187D02*
Y69937D01*
X42125D01*
X42750Y69625D01*
X43063Y69313D01*
X43375Y68687D01*
Y67437D01*
X43063Y66813D01*
X42750Y66500D01*
X42125Y66187D01*
X40250D01*
Y76187D02*
Y79937D01*
X42125D01*
X42750Y79625D01*
X43063Y79313D01*
X43375Y78687D01*
Y77437D01*
X43063Y76813D01*
X42750Y76500D01*
X42125Y76187D01*
X40250D01*
Y86187D02*
Y89937D01*
X42125D01*
X42750Y89625D01*
X43063Y89313D01*
X43375Y88687D01*
Y87437D01*
X43063Y86813D01*
X42750Y86500D01*
X42125Y86187D01*
X40250D01*
Y96187D02*
Y99937D01*
X42125D01*
X42750Y99625D01*
X43063Y99313D01*
X43375Y98687D01*
Y97437D01*
X43063Y96813D01*
X42750Y96500D01*
X42125Y96187D01*
X40250D01*
Y106187D02*
Y109937D01*
X42125D01*
X42750Y109625D01*
X43063Y109313D01*
X43375Y108687D01*
Y107437D01*
X43063Y106813D01*
X42750Y106500D01*
X42125Y106187D01*
X40250D01*
Y116187D02*
Y119937D01*
X42125D01*
X42750Y119625D01*
X43063Y119313D01*
X43375Y118687D01*
Y117437D01*
X43063Y116813D01*
X42750Y116500D01*
X42125Y116187D01*
X40250D01*
Y126187D02*
Y129937D01*
X42125D01*
X42750Y129625D01*
X43063Y129313D01*
X43375Y128687D01*
Y127437D01*
X43063Y126813D01*
X42750Y126500D01*
X42125Y126187D01*
X40250D01*
Y136187D02*
Y139937D01*
X42125D01*
X42750Y139625D01*
X43063Y139313D01*
X43375Y138687D01*
Y137437D01*
X43063Y136813D01*
X42750Y136500D01*
X42125Y136187D01*
X40250D01*
Y146187D02*
Y149937D01*
X42125D01*
X42750Y149625D01*
X43063Y149313D01*
X43375Y148687D01*
Y147437D01*
X43063Y146813D01*
X42750Y146500D01*
X42125Y146187D01*
X40250D01*
Y156187D02*
Y159937D01*
X42125D01*
X42750Y159625D01*
X43063Y159313D01*
X43375Y158687D01*
Y157437D01*
X43063Y156813D01*
X42750Y156500D01*
X42125Y156187D01*
X40250D01*
Y166187D02*
Y169937D01*
X42125D01*
X42750Y169625D01*
X43063Y169313D01*
X43375Y168687D01*
Y167437D01*
X43063Y166813D01*
X42750Y166500D01*
X42125Y166187D01*
X40250D01*
Y176187D02*
Y179937D01*
X42125D01*
X42750Y179625D01*
X43063Y179313D01*
X43375Y178687D01*
Y177437D01*
X43063Y176813D01*
X42750Y176500D01*
X42125Y176187D01*
X40250D01*
Y186187D02*
Y189937D01*
X42125D01*
X42750Y189625D01*
X43063Y189313D01*
X43375Y188687D01*
Y187437D01*
X43063Y186813D01*
X42750Y186500D01*
X42125Y186187D01*
X40250D01*
Y196187D02*
Y199937D01*
X42125D01*
X42750Y199625D01*
X43063Y199313D01*
X43375Y198687D01*
Y197437D01*
X43063Y196813D01*
X42750Y196500D01*
X42125Y196187D01*
X40250D01*
Y206187D02*
Y209937D01*
X42125D01*
X42750Y209625D01*
X43063Y209313D01*
X43375Y208687D01*
Y207437D01*
X43063Y206813D01*
X42750Y206500D01*
X42125Y206187D01*
X40250D01*
Y216187D02*
Y219937D01*
X42125D01*
X42750Y219625D01*
X43063Y219313D01*
X43375Y218687D01*
Y217437D01*
X43063Y216813D01*
X42750Y216500D01*
X42125Y216187D01*
X40250D01*
Y226187D02*
Y229937D01*
X42125D01*
X42750Y229625D01*
X43063Y229313D01*
X43375Y228687D01*
Y227437D01*
X43063Y226813D01*
X42750Y226500D01*
X42125Y226187D01*
X40250D01*
Y236187D02*
Y239937D01*
X42125D01*
X42750Y239625D01*
X43063Y239313D01*
X43375Y238687D01*
Y237437D01*
X43063Y236813D01*
X42750Y236500D01*
X42125Y236187D01*
X40250D01*
Y246187D02*
Y249937D01*
X42125D01*
X42750Y249625D01*
X43063Y249313D01*
X43375Y248687D01*
Y247437D01*
X43063Y246813D01*
X42750Y246500D01*
X42125Y246187D01*
X40250D01*
Y256187D02*
Y259937D01*
X42125D01*
X42750Y259625D01*
X43063Y259313D01*
X43375Y258687D01*
Y257437D01*
X43063Y256813D01*
X42750Y256500D01*
X42125Y256187D01*
X40250D01*
X50250Y16187D02*
Y19937D01*
X52125D01*
X52750Y19625D01*
X53063Y19313D01*
X53375Y18687D01*
Y17437D01*
X53063Y16813D01*
X52750Y16500D01*
X52125Y16187D01*
X50250D01*
Y26187D02*
Y29937D01*
X52125D01*
X52750Y29625D01*
X53063Y29313D01*
X53375Y28687D01*
Y27437D01*
X53063Y26813D01*
X52750Y26500D01*
X52125Y26187D01*
X50250D01*
Y36187D02*
Y39937D01*
X52125D01*
X52750Y39625D01*
X53063Y39313D01*
X53375Y38687D01*
Y37437D01*
X53063Y36813D01*
X52750Y36500D01*
X52125Y36187D01*
X50250D01*
Y46187D02*
Y49937D01*
X52125D01*
X52750Y49625D01*
X53063Y49313D01*
X53375Y48687D01*
Y47437D01*
X53063Y46813D01*
X52750Y46500D01*
X52125Y46187D01*
X50250D01*
Y56187D02*
Y59937D01*
X52125D01*
X52750Y59625D01*
X53063Y59313D01*
X53375Y58687D01*
Y57437D01*
X53063Y56813D01*
X52750Y56500D01*
X52125Y56187D01*
X50250D01*
Y66187D02*
Y69937D01*
X52125D01*
X52750Y69625D01*
X53063Y69313D01*
X53375Y68687D01*
Y67437D01*
X53063Y66813D01*
X52750Y66500D01*
X52125Y66187D01*
X50250D01*
Y76187D02*
Y79937D01*
X52125D01*
X52750Y79625D01*
X53063Y79313D01*
X53375Y78687D01*
Y77437D01*
X53063Y76813D01*
X52750Y76500D01*
X52125Y76187D01*
X50250D01*
Y86187D02*
Y89937D01*
X52125D01*
X52750Y89625D01*
X53063Y89313D01*
X53375Y88687D01*
Y87437D01*
X53063Y86813D01*
X52750Y86500D01*
X52125Y86187D01*
X50250D01*
Y96187D02*
Y99937D01*
X52125D01*
X52750Y99625D01*
X53063Y99313D01*
X53375Y98687D01*
Y97437D01*
X53063Y96813D01*
X52750Y96500D01*
X52125Y96187D01*
X50250D01*
Y106187D02*
Y109937D01*
X52125D01*
X52750Y109625D01*
X53063Y109313D01*
X53375Y108687D01*
Y107437D01*
X53063Y106813D01*
X52750Y106500D01*
X52125Y106187D01*
X50250D01*
Y116187D02*
Y119937D01*
X52125D01*
X52750Y119625D01*
X53063Y119313D01*
X53375Y118687D01*
Y117437D01*
X53063Y116813D01*
X52750Y116500D01*
X52125Y116187D01*
X50250D01*
Y126187D02*
Y129937D01*
X52125D01*
X52750Y129625D01*
X53063Y129313D01*
X53375Y128687D01*
Y127437D01*
X53063Y126813D01*
X52750Y126500D01*
X52125Y126187D01*
X50250D01*
Y136187D02*
Y139937D01*
X52125D01*
X52750Y139625D01*
X53063Y139313D01*
X53375Y138687D01*
Y137437D01*
X53063Y136813D01*
X52750Y136500D01*
X52125Y136187D01*
X50250D01*
Y146187D02*
Y149937D01*
X52125D01*
X52750Y149625D01*
X53063Y149313D01*
X53375Y148687D01*
Y147437D01*
X53063Y146813D01*
X52750Y146500D01*
X52125Y146187D01*
X50250D01*
Y156187D02*
Y159937D01*
X52125D01*
X52750Y159625D01*
X53063Y159313D01*
X53375Y158687D01*
Y157437D01*
X53063Y156813D01*
X52750Y156500D01*
X52125Y156187D01*
X50250D01*
Y166187D02*
Y169937D01*
X52125D01*
X52750Y169625D01*
X53063Y169313D01*
X53375Y168687D01*
Y167437D01*
X53063Y166813D01*
X52750Y166500D01*
X52125Y166187D01*
X50250D01*
Y176187D02*
Y179937D01*
X52125D01*
X52750Y179625D01*
X53063Y179313D01*
X53375Y178687D01*
Y177437D01*
X53063Y176813D01*
X52750Y176500D01*
X52125Y176187D01*
X50250D01*
Y186187D02*
Y189937D01*
X52125D01*
X52750Y189625D01*
X53063Y189313D01*
X53375Y188687D01*
Y187437D01*
X53063Y186813D01*
X52750Y186500D01*
X52125Y186187D01*
X50250D01*
Y196187D02*
Y199937D01*
X52125D01*
X52750Y199625D01*
X53063Y199313D01*
X53375Y198687D01*
Y197437D01*
X53063Y196813D01*
X52750Y196500D01*
X52125Y196187D01*
X50250D01*
Y206187D02*
Y209937D01*
X52125D01*
X52750Y209625D01*
X53063Y209313D01*
X53375Y208687D01*
Y207437D01*
X53063Y206813D01*
X52750Y206500D01*
X52125Y206187D01*
X50250D01*
Y216187D02*
Y219937D01*
X52125D01*
X52750Y219625D01*
X53063Y219313D01*
X53375Y218687D01*
Y217437D01*
X53063Y216813D01*
X52750Y216500D01*
X52125Y216187D01*
X50250D01*
Y226187D02*
Y229937D01*
X52125D01*
X52750Y229625D01*
X53063Y229313D01*
X53375Y228687D01*
Y227437D01*
X53063Y226813D01*
X52750Y226500D01*
X52125Y226187D01*
X50250D01*
Y236187D02*
Y239937D01*
X52125D01*
X52750Y239625D01*
X53063Y239313D01*
X53375Y238687D01*
Y237437D01*
X53063Y236813D01*
X52750Y236500D01*
X52125Y236187D01*
X50250D01*
Y246187D02*
Y249937D01*
X52125D01*
X52750Y249625D01*
X53063Y249313D01*
X53375Y248687D01*
Y247437D01*
X53063Y246813D01*
X52750Y246500D01*
X52125Y246187D01*
X50250D01*
Y256187D02*
Y259937D01*
X52125D01*
X52750Y259625D01*
X53063Y259313D01*
X53375Y258687D01*
Y257437D01*
X53063Y256813D01*
X52750Y256500D01*
X52125Y256187D01*
X50250D01*
X0Y0D02*
M02*
