G05
M48
INCH,TZ
FMAT,2
T1C000.03500
%
T001
X0.10250Y0.10250
X0.10250Y0.20250
X0.10250Y0.30250
X0.10250Y0.40250
X0.10250Y0.50250
X0.10250Y0.60250
X0.10250Y0.70250
X0.10250Y0.80250
X0.10250Y0.90250
X0.10250Y1.00250
X0.10250Y1.10250
X0.10250Y1.20250
X0.10250Y1.30250
X0.10250Y1.40250
X0.10250Y1.50250
X0.10250Y1.60250
X0.10250Y1.70250
X0.10250Y1.80250
X0.10250Y1.90250
X0.10250Y2.00250
X0.10250Y2.10250
X0.10250Y2.20250
X0.10250Y2.30250
X0.10250Y2.40250
X0.10250Y2.50250
X0.20250Y0.10250
X0.20250Y0.20250
X0.20250Y0.30250
X0.20250Y0.40250
X0.20250Y0.50250
X0.20250Y0.60250
X0.20250Y0.70250
X0.20250Y0.80250
X0.20250Y0.90250
X0.20250Y1.00250
X0.20250Y1.10250
X0.20250Y1.20250
X0.20250Y1.30250
X0.20250Y1.40250
X0.20250Y1.50250
X0.20250Y1.60250
X0.20250Y1.70250
X0.20250Y1.80250
X0.20250Y1.90250
X0.20250Y2.00250
X0.20250Y2.10250
X0.20250Y2.20250
X0.20250Y2.30250
X0.20250Y2.40250
X0.20250Y2.50250
X0.30250Y0.10250
X0.30250Y0.20250
X0.30250Y0.30250
X0.30250Y0.40250
X0.30250Y0.50250
X0.30250Y0.60250
X0.30250Y0.70250
X0.30250Y0.80250
X0.30250Y0.90250
X0.30250Y1.00250
X0.30250Y1.10250
X0.30250Y1.20250
X0.30250Y1.30250
X0.30250Y1.40250
X0.30250Y1.50250
X0.30250Y1.60250
X0.30250Y1.70250
X0.30250Y1.80250
X0.30250Y1.90250
X0.30250Y2.00250
X0.30250Y2.10250
X0.30250Y2.20250
X0.30250Y2.30250
X0.30250Y2.40250
X0.30250Y2.50250
X0.40250Y0.10250
X0.40250Y0.20250
X0.40250Y0.30250
X0.40250Y0.40250
X0.40250Y0.50250
X0.40250Y0.60250
X0.40250Y0.70250
X0.40250Y0.80250
X0.40250Y0.90250
X0.40250Y1.00250
X0.40250Y1.10250
X0.40250Y1.20250
X0.40250Y1.30250
X0.40250Y1.40250
X0.40250Y1.50250
X0.40250Y1.60250
X0.40250Y1.70250
X0.40250Y1.80250
X0.40250Y1.90250
X0.40250Y2.00250
X0.40250Y2.10250
X0.40250Y2.20250
X0.40250Y2.30250
X0.40250Y2.40250
X0.40250Y2.50250
M30
