M48
; DRILL file {KiCad 9.0.7-9.0.7~ubuntu24.04.1} date 2026-03-07T09:27:30-0600
; FORMAT={-:-/ absolute / metric / decimal}
; #@! TF.CreationDate,2026-03-07T09:27:30-06:00
; #@! TF.GenerationSoftware,Kicad,Pcbnew,9.0.7-9.0.7~ubuntu24.04.1
; #@! TF.FileFunction,Plated,1,2,PTH
FMAT,2
METRIC
; #@! TA.AperFunction,Plated,PTH,ComponentDrill
T1C0.800
; #@! TA.AperFunction,Plated,PTH,ViaDrill
T2C1.000
; #@! TA.AperFunction,Plated,PTH,ComponentDrill
T3C1.000
%
G90
G05
T1
X22.86Y48.26
X22.86Y45.72
X22.86Y43.18
X22.86Y40.64
X22.86Y38.1
X22.86Y35.56
X22.86Y33.02
X22.86Y30.48
X22.86Y27.94
X22.86Y25.4
X22.86Y22.86
X22.86Y20.32
X22.86Y17.78
X22.86Y15.24
X38.1Y48.26
X38.1Y45.72
X38.1Y43.18
X38.1Y40.64
X38.1Y38.1
X38.1Y35.56
X38.1Y33.02
X38.1Y30.48
X38.1Y27.94
X38.1Y25.4
X38.1Y22.86
X38.1Y20.32
X38.1Y17.78
X38.1Y15.24
X73.66Y50.8
X73.66Y48.26
X73.66Y45.72
X73.66Y43.18
X73.66Y40.64
X73.66Y38.1
X73.66Y35.56
X73.66Y33.02
X73.66Y30.48
X73.66Y27.94
X81.28Y50.8
X81.28Y48.26
X81.28Y45.72
X81.28Y43.18
X81.28Y40.64
X81.28Y38.1
X81.28Y35.56
X81.28Y33.02
X81.28Y30.48
X81.28Y27.94
T2
X50.8Y55.88
X50.8Y43.18
X58.42Y33.02
X58.42Y2.54
X60.96Y76.2
X60.96Y50.8
X60.96Y25.4
X60.96Y5.08
X63.5Y73.66
X63.5Y48.26
X63.5Y30.48
X63.5Y15.24
X66.04Y71.12
X66.04Y45.72
X66.04Y33.02
X66.04Y12.7
X68.58Y68.58
X68.58Y43.18
X68.58Y35.56
X68.58Y10.16
X71.12Y66.04
X71.12Y40.64
X71.12Y38.1
X71.12Y7.62
X76.2Y58.42
X76.2Y45.72
T3
X50.8Y40.64
X50.8Y38.1
X50.8Y35.56
X55.88Y40.64
X55.88Y38.1
X55.88Y35.56
M30
