%TF.GenerationSoftware,KiCad,Pcbnew,9.0.7-9.0.7~ubuntu24.04.1*%
%TF.CreationDate,2026-03-07T09:27:25-06:00*%
%TF.ProjectId,cpu6-rom-adapter,63707536-2d72-46f6-9d2d-616461707465,rev?*%
%TF.SameCoordinates,PX54c81a0PY8c7ecc0*%
%TF.FileFunction,Copper,L2,Bot*%
%TF.FilePolarity,Positive*%
%FSLAX46Y46*%
G04 Gerber Fmt 4.6, Leading zero omitted, Abs format (unit mm)*
G04 Created by KiCad (PCBNEW 9.0.7-9.0.7~ubuntu24.04.1) date 2026-03-07 09:27:25*
%MOMM*%
%LPD*%
G01*
G04 APERTURE LIST*
G04 Aperture macros list*
%AMRoundRect*
0 Rectangle with rounded corners*
0 $1 Rounding radius*
0 $2 $3 $4 $5 $6 $7 $8 $9 X,Y pos of 4 corners*
0 Add a 4 corners polygon primitive as box body*
4,1,4,$2,$3,$4,$5,$6,$7,$8,$9,$2,$3,0*
0 Add four circle primitives for the rounded corners*
1,1,$1+$1,$2,$3*
1,1,$1+$1,$4,$5*
1,1,$1+$1,$6,$7*
1,1,$1+$1,$8,$9*
0 Add four rect primitives between the rounded corners*
20,1,$1+$1,$2,$3,$4,$5,0*
20,1,$1+$1,$4,$5,$6,$7,0*
20,1,$1+$1,$6,$7,$8,$9,0*
20,1,$1+$1,$8,$9,$2,$3,0*%
G04 Aperture macros list end*
%TA.AperFunction,ComponentPad*%
%ADD10RoundRect,0.250000X-0.550000X-0.550000X0.550000X-0.550000X0.550000X0.550000X-0.550000X0.550000X0*%
%TD*%
%TA.AperFunction,ComponentPad*%
%ADD11C,1.600000*%
%TD*%
%TA.AperFunction,ComponentPad*%
%ADD12R,1.700000X1.700000*%
%TD*%
%TA.AperFunction,ComponentPad*%
%ADD13C,1.700000*%
%TD*%
%TA.AperFunction,ViaPad*%
%ADD14C,1.800000*%
%TD*%
%TA.AperFunction,Conductor*%
%ADD15C,1.000000*%
%TD*%
G04 APERTURE END LIST*
D10*
%TO.P,J1,1,Pin_1*%
%TO.N,/A0*%
X73660000Y50800000D03*
D11*
%TO.P,J1,2,Pin_2*%
%TO.N,/A1*%
X73660000Y48260000D03*
%TO.P,J1,3,Pin_3*%
%TO.N,/A2*%
X73660000Y45720000D03*
%TO.P,J1,4,Pin_4*%
%TO.N,/A3*%
X73660000Y43180000D03*
%TO.P,J1,5,Pin_5*%
%TO.N,/A4*%
X73660000Y40640000D03*
%TO.P,J1,6,Pin_6*%
%TO.N,/Q0*%
X73660000Y38100000D03*
%TO.P,J1,7,Pin_7*%
%TO.N,/Q1*%
X73660000Y35560000D03*
%TO.P,J1,8,Pin_8*%
%TO.N,/Q2*%
X73660000Y33020000D03*
%TO.P,J1,9,Pin_9*%
%TO.N,/Q3*%
X73660000Y30480000D03*
%TO.P,J1,10,Pin_10*%
%TO.N,/GND*%
X73660000Y27940000D03*
%TO.P,J1,11,Pin_11*%
%TO.N,/Q4*%
X81280000Y27940000D03*
%TO.P,J1,12,Pin_12*%
%TO.N,/Q5*%
X81280000Y30480000D03*
%TO.P,J1,13,Pin_13*%
%TO.N,/Q6*%
X81280000Y33020000D03*
%TO.P,J1,14,Pin_14*%
%TO.N,/Q7*%
X81280000Y35560000D03*
%TO.P,J1,15,Pin_15*%
%TO.N,/~{G}*%
X81280000Y38100000D03*
%TO.P,J1,16,Pin_16*%
%TO.N,/A5*%
X81280000Y40640000D03*
%TO.P,J1,17,Pin_17*%
%TO.N,/A6*%
X81280000Y43180000D03*
%TO.P,J1,18,Pin_18*%
%TO.N,/A7*%
X81280000Y45720000D03*
%TO.P,J1,19,Pin_19*%
%TO.N,/A8*%
X81280000Y48260000D03*
%TO.P,J1,20,Pin_20*%
%TO.N,/Vcc*%
X81280000Y50800000D03*
%TD*%
D12*
%TO.P,JP1,1,A*%
%TO.N,/GND*%
X50800000Y35560000D03*
D13*
%TO.P,JP1,2,C*%
%TO.N,/A9*%
X50800000Y38100000D03*
%TO.P,JP1,3,B*%
%TO.N,/Vcc*%
X50800000Y40640000D03*
%TD*%
D12*
%TO.P,JP2,1,A*%
%TO.N,/GND*%
X55880000Y35560000D03*
D13*
%TO.P,JP2,2,C*%
%TO.N,/A10*%
X55880000Y38100000D03*
%TO.P,JP2,3,B*%
%TO.N,/Vcc*%
X55880000Y40640000D03*
%TD*%
D10*
%TO.P,U2,1,Vpp*%
%TO.N,unconnected-(U2-Vpp-Pad1)*%
X22860000Y48260000D03*
D11*
%TO.P,U2,2,A12*%
%TO.N,/GND*%
X22860000Y45720000D03*
%TO.P,U2,3,A7*%
%TO.N,/A7*%
X22860000Y43180000D03*
%TO.P,U2,4,A6*%
%TO.N,/A6*%
X22860000Y40640000D03*
%TO.P,U2,5,A5*%
%TO.N,/A5*%
X22860000Y38100000D03*
%TO.P,U2,6,A4*%
%TO.N,/A4*%
X22860000Y35560000D03*
%TO.P,U2,7,A3*%
%TO.N,/A3*%
X22860000Y33020000D03*
%TO.P,U2,8,A2*%
%TO.N,/A2*%
X22860000Y30480000D03*
%TO.P,U2,9,A1*%
%TO.N,/A1*%
X22860000Y27940000D03*
%TO.P,U2,10,A0*%
%TO.N,/A0*%
X22860000Y25400000D03*
%TO.P,U2,11,Q0*%
%TO.N,/Q0*%
X22860000Y22860000D03*
%TO.P,U2,12,Q1*%
%TO.N,/Q1*%
X22860000Y20320000D03*
%TO.P,U2,13,Q2*%
%TO.N,/Q2*%
X22860000Y17780000D03*
%TO.P,U2,14,GND*%
%TO.N,/GND*%
X22860000Y15240000D03*
%TO.P,U2,15,Q3*%
%TO.N,/Q3*%
X38100000Y15240000D03*
%TO.P,U2,16,Q4*%
%TO.N,/Q4*%
X38100000Y17780000D03*
%TO.P,U2,17,Q5*%
%TO.N,/Q5*%
X38100000Y20320000D03*
%TO.P,U2,18,Q6*%
%TO.N,/Q6*%
X38100000Y22860000D03*
%TO.P,U2,19,Q7*%
%TO.N,/Q7*%
X38100000Y25400000D03*
%TO.P,U2,20,~{CE}*%
%TO.N,/GND*%
X38100000Y27940000D03*
%TO.P,U2,21,A10*%
%TO.N,/A10*%
X38100000Y30480000D03*
%TO.P,U2,22,~{OE}*%
%TO.N,/~{G}*%
X38100000Y33020000D03*
%TO.P,U2,23,A11*%
%TO.N,/GND*%
X38100000Y35560000D03*
%TO.P,U2,24,A9*%
%TO.N,/A9*%
X38100000Y38100000D03*
%TO.P,U2,25,A8*%
%TO.N,/A8*%
X38100000Y40640000D03*
%TO.P,U2,26,A13*%
%TO.N,/GND*%
X38100000Y43180000D03*
%TO.P,U2,27,A14*%
X38100000Y45720000D03*
%TO.P,U2,28,Vcc*%
%TO.N,/Vcc*%
X38100000Y48260000D03*
%TD*%
D14*
%TO.N,/A1*%
X63500000Y48260000D03*
X63500000Y73660000D03*
%TO.N,/Q3*%
X63500000Y30480000D03*
X63500000Y15240000D03*
%TO.N,/Vcc*%
X50800000Y43180000D03*
X50800000Y55880000D03*
%TO.N,/Q2*%
X66040000Y12700000D03*
X66040000Y33020000D03*
%TO.N,/~{G}*%
X58420000Y2540000D03*
X58420000Y33020000D03*
%TO.N,/A7*%
X76200000Y45720000D03*
X76200000Y58420000D03*
%TO.N,/Q7*%
X60960000Y5080000D03*
X60960000Y25400000D03*
%TO.N,/Q1*%
X68580000Y35560000D03*
X68580000Y10160000D03*
%TO.N,/A3*%
X68580000Y43180000D03*
X68580000Y68580000D03*
%TO.N,/A0*%
X60960000Y50800000D03*
X60960000Y76200000D03*
%TO.N,/Q0*%
X71120000Y7620000D03*
X71120000Y38100000D03*
%TO.N,/A4*%
X71120000Y66040000D03*
X71120000Y40640000D03*
%TO.N,/A2*%
X66040000Y71120000D03*
X66040000Y45720000D03*
%TD*%
D15*
%TO.N,/A5*%
X15240000Y45720000D02*
X15240000Y55880000D01*
X86360000Y53340000D02*
X86360000Y45720000D01*
X22860000Y63500000D02*
X76200000Y63500000D01*
X76200000Y63500000D02*
G75*
G02*
X86360000Y53340000I0J-10160000D01*
G01*
X86360000Y45720000D02*
G75*
G02*
X81280000Y40640000I-5080000J0D01*
G01*
X15240000Y55880000D02*
G75*
G02*
X22860000Y63500000I7620000J0D01*
G01*
X22860000Y38100000D02*
G75*
G02*
X15240000Y45720000I0J7620000D01*
G01*
%TO.N,/A1*%
X5080000Y45720000D02*
X5080000Y53340000D01*
X73660000Y48260000D02*
X63500000Y48260000D01*
X22860000Y73660000D02*
X63500000Y73660000D01*
X5080000Y53340000D02*
X5080000Y55880000D01*
X5080000Y55880000D02*
G75*
G02*
X22860000Y73660000I17780000J0D01*
G01*
X22860000Y27940000D02*
G75*
G02*
X5080000Y45720000I0J17780000D01*
G01*
%TO.N,/Q3*%
X73660000Y30480000D02*
X63500000Y30480000D01*
X63500000Y15240000D02*
X38100000Y15240000D01*
%TO.N,/Vcc*%
X50800000Y40640000D02*
X50800000Y43180000D01*
X50800000Y55880000D02*
X45720000Y55880000D01*
X81280000Y50800000D02*
X81280000Y53340000D01*
X50800000Y40640000D02*
X55880000Y40640000D01*
X78740000Y55880000D02*
X50800000Y55880000D01*
X45720000Y55880000D02*
G75*
G03*
X38100000Y48260000I0J-7620000D01*
G01*
X81280000Y53340000D02*
G75*
G03*
X78740000Y55880000I-2540000J0D01*
G01*
%TO.N,/A8*%
X43180000Y40640000D02*
X38100000Y40640000D01*
X76200000Y53340000D02*
X55880000Y53340000D01*
X81280000Y48260000D02*
G75*
G02*
X78740000Y50800000I0J2540000D01*
G01*
X78740000Y50800000D02*
G75*
G03*
X76200000Y53340000I-2540000J0D01*
G01*
X55880000Y53340000D02*
G75*
G03*
X48260000Y45720000I0J-7620000D01*
G01*
X48260000Y45720000D02*
G75*
G02*
X43180000Y40640000I-5080000J0D01*
G01*
%TO.N,/Q6*%
X38100000Y22860000D02*
X48260000Y22860000D01*
X48260000Y22860000D02*
X71120000Y22860000D01*
X76200000Y27940000D02*
G75*
G02*
X81280000Y33020000I5080000J0D01*
G01*
X71120000Y22860000D02*
G75*
G03*
X76200000Y27940000I0J5080000D01*
G01*
%TO.N,/Q5*%
X38100000Y20320000D02*
X71120000Y20320000D01*
X78740000Y27940000D02*
G75*
G02*
X81280000Y30480000I2540000J0D01*
G01*
X71120000Y20320000D02*
G75*
G03*
X78740000Y27940000I0J7620000D01*
G01*
%TO.N,/A6*%
X22860000Y60960000D02*
X76200000Y60960000D01*
X83820000Y53340000D02*
X83820000Y45720000D01*
X17780000Y45720000D02*
X17780000Y55880000D01*
X22860000Y40640000D02*
G75*
G02*
X17780000Y45720000I0J5080000D01*
G01*
X17780000Y55880000D02*
G75*
G02*
X22860000Y60960000I5080000J0D01*
G01*
X76200000Y60960000D02*
G75*
G02*
X83820000Y53340000I0J-7620000D01*
G01*
X83820000Y45720000D02*
G75*
G02*
X81280000Y43180000I-2540000J0D01*
G01*
%TO.N,/Q2*%
X22860000Y12700000D02*
X66040000Y12700000D01*
X73660000Y33020000D02*
X66040000Y33020000D01*
X20320000Y15240000D02*
G75*
G03*
X22860000Y12700000I2540000J0D01*
G01*
X22860000Y17780000D02*
G75*
G03*
X20320000Y15240000I0J-2540000D01*
G01*
%TO.N,/~{G}*%
X71120000Y2540000D02*
X58420000Y2540000D01*
X86360000Y33020000D02*
X86360000Y17780000D01*
X58420000Y33020000D02*
X38100000Y33020000D01*
X81280000Y38100000D02*
G75*
G02*
X86360000Y33020000I0J-5080000D01*
G01*
X86360000Y17780000D02*
G75*
G02*
X71120000Y2540000I-15240000J0D01*
G01*
%TO.N,/A7*%
X20320000Y45720000D02*
X20320000Y55880000D01*
X71219749Y58419510D02*
X76199510Y58419510D01*
X81280000Y45720000D02*
X76200000Y45720000D01*
X22860000Y58420000D02*
X71120000Y58420000D01*
X22860000Y43180000D02*
G75*
G02*
X20320000Y45720000I0J2540000D01*
G01*
X20320000Y55880000D02*
G75*
G02*
X22860000Y58420000I2540000J0D01*
G01*
%TO.N,/Q7*%
X83820000Y25400000D02*
X83820000Y17780000D01*
X71120000Y5080000D02*
X60960000Y5080000D01*
X83820000Y25400000D02*
X83820000Y33020000D01*
X60960000Y25400000D02*
X38100000Y25400000D01*
X83820000Y17780000D02*
G75*
G02*
X71120000Y5080000I-12700000J0D01*
G01*
X83820000Y33020000D02*
G75*
G03*
X81280000Y35560000I-2540000J0D01*
G01*
%TO.N,/Q1*%
X22860000Y10160000D02*
X68580000Y10160000D01*
X73660000Y35560000D02*
X68580000Y35560000D01*
X17780000Y15240000D02*
G75*
G03*
X22860000Y10160000I5080000J0D01*
G01*
X22860000Y20320000D02*
G75*
G03*
X17780000Y15240000I0J-5080000D01*
G01*
%TO.N,/A3*%
X10160000Y53340000D02*
X10160000Y55880000D01*
X10160000Y48260000D02*
X10160000Y53340000D01*
X22860000Y68580000D02*
X68580000Y68580000D01*
X10160000Y45720000D02*
X10160000Y48260000D01*
X73660000Y43180000D02*
X68580000Y43180000D01*
X10160000Y55880000D02*
G75*
G02*
X22860000Y68580000I12700000J0D01*
G01*
X22860000Y33020000D02*
G75*
G02*
X10160000Y45720000I0J12700000D01*
G01*
%TO.N,/A0*%
X22860000Y76200000D02*
X60960000Y76200000D01*
X2540000Y45720000D02*
X2540000Y53340000D01*
X73660000Y50800000D02*
X60960000Y50800000D01*
X2540000Y53340000D02*
X2540000Y55880000D01*
X22860000Y25400000D02*
G75*
G02*
X2540000Y45720000I0J20320000D01*
G01*
X2540000Y55880000D02*
G75*
G02*
X22860000Y76200000I20320000J0D01*
G01*
%TO.N,/Q0*%
X73660000Y38100000D02*
X71120000Y38100000D01*
X22860000Y7620000D02*
X71120000Y7620000D01*
X22860000Y22860000D02*
G75*
G03*
X15240000Y15240000I0J-7620000D01*
G01*
X15240000Y15240000D02*
G75*
G03*
X22860000Y7620000I7620000J0D01*
G01*
%TO.N,/GND*%
X50800000Y35560000D02*
X55880000Y35560000D01*
X38100000Y35560000D02*
X50800000Y35560000D01*
X25400000Y15240000D02*
X22860000Y15240000D01*
X33020000Y38100000D02*
X33020000Y40640000D01*
X38100000Y27940000D02*
X73660000Y27940000D01*
X25400000Y45720000D02*
X22860000Y45720000D01*
X33020000Y30480000D02*
X33020000Y22860000D01*
X33020000Y30480000D02*
X33020000Y38100000D01*
X33020000Y22860000D02*
G75*
G02*
X25400000Y15240000I-7620000J0D01*
G01*
X38100000Y27940000D02*
G75*
G03*
X33020000Y22860000I0J-5080000D01*
G01*
X33020000Y38100000D02*
G75*
G03*
X25400000Y45720000I-7620000J0D01*
G01*
X33020000Y38100000D02*
G75*
G02*
X38100000Y43180000I5080000J0D01*
G01*
X33020000Y40640000D02*
G75*
G02*
X38100000Y45720000I5080000J0D01*
G01*
X38100000Y35560000D02*
G75*
G03*
X33020000Y30480000I0J-5080000D01*
G01*
%TO.N,/Q4*%
X43180000Y17780000D02*
X71120000Y17780000D01*
X38100000Y17780000D02*
X43180000Y17780000D01*
X71120000Y17780000D02*
G75*
G03*
X81280000Y27940000I0J10160000D01*
G01*
%TO.N,/A4*%
X12700000Y45720000D02*
X12700000Y53340000D01*
X12700000Y53340000D02*
X12700000Y55880000D01*
X22860000Y66040000D02*
X71120000Y66040000D01*
X73660000Y40640000D02*
X71120000Y40640000D01*
X22860000Y35560000D02*
G75*
G02*
X12700000Y45720000I0J10160000D01*
G01*
X12700000Y55880000D02*
G75*
G02*
X22860000Y66040000I10160000J0D01*
G01*
%TO.N,/A2*%
X7620000Y45720000D02*
X7620000Y55880000D01*
X73660000Y45720000D02*
X66040000Y45720000D01*
X22860000Y71120000D02*
X66040000Y71120000D01*
X7620000Y55880000D02*
G75*
G02*
X22860000Y71120000I15240000J0D01*
G01*
X22860000Y30480000D02*
G75*
G02*
X7620000Y45720000I0J15240000D01*
G01*
%TO.N,/A9*%
X38100000Y38100000D02*
X50800000Y38100000D01*
%TO.N,/A10*%
X58420000Y38100000D02*
X55880000Y38100000D01*
X55880000Y30480000D02*
X58420000Y30480000D01*
X38100000Y30480000D02*
X55880000Y30480000D01*
X60960000Y33020000D02*
X60960000Y35560000D01*
X58420000Y30480000D02*
G75*
G03*
X60960000Y33020000I0J2540000D01*
G01*
X60960000Y35560000D02*
G75*
G03*
X58420000Y38100000I-2540000J0D01*
G01*
%TD*%
M02*
