G04 DesignSpark PCB Gerber Version 10.0 Build 5299*
%FSLAX35Y35*%
%MOIN*%
%ADD120C,0.03500*%
X0Y0D02*
D02*
D120*
X20250Y100250D03*
Y240250D03*
Y250250D03*
X30250Y100250D03*
Y250250D03*
X40250Y100250D03*
Y230250D03*
Y250250D03*
X50250Y100250D03*
Y250250D03*
X60250Y100250D03*
Y170250D03*
Y250250D03*
X70250Y100250D03*
Y250250D03*
X80250Y100250D03*
Y250250D03*
X90250Y100250D03*
Y250250D03*
X100250Y100250D03*
Y150250D03*
Y160250D03*
Y250250D03*
X110250Y100250D03*
Y130250D03*
Y250250D03*
X120250Y100250D03*
Y120250D03*
Y250250D03*
X130250Y100250D03*
Y140250D03*
Y250250D03*
X140250Y100250D03*
Y250250D03*
X150250Y100250D03*
Y250250D03*
X160250Y100250D03*
Y250250D03*
X170250Y100250D03*
Y250250D03*
X180250Y100250D03*
Y120250D03*
Y130250D03*
Y140250D03*
Y250250D03*
X190250Y100250D03*
Y160250D03*
Y240250D03*
Y250250D03*
X200250Y100250D03*
Y150250D03*
Y230250D03*
Y250250D03*
X210250Y100250D03*
Y250250D03*
X220250Y100250D03*
Y200250D03*
Y250250D03*
X230250Y100250D03*
Y250250D03*
X240250Y100250D03*
Y170250D03*
Y250250D03*
X250250Y100250D03*
Y250250D03*
X260250Y100250D03*
Y200250D03*
Y250250D03*
X310250Y20250D03*
Y30250D03*
Y40250D03*
Y50250D03*
Y100250D03*
Y250250D03*
X320250Y20250D03*
Y30250D03*
Y40250D03*
Y50250D03*
Y100250D03*
Y250250D03*
X330250Y20250D03*
Y30250D03*
Y40250D03*
Y50250D03*
Y100250D03*
Y250250D03*
X340250Y20250D03*
Y30250D03*
Y40250D03*
Y50250D03*
Y100250D03*
Y250250D03*
X350250Y20250D03*
Y30250D03*
Y40250D03*
Y50250D03*
Y100250D03*
Y250250D03*
X360250Y20250D03*
Y30250D03*
Y40250D03*
Y50250D03*
Y100250D03*
Y250250D03*
X370250Y20250D03*
Y30250D03*
Y40250D03*
Y50250D03*
Y100250D03*
Y250250D03*
X380250Y20250D03*
Y30250D03*
Y40250D03*
Y50250D03*
Y100250D03*
Y250250D03*
X390250Y20250D03*
Y30250D03*
Y40250D03*
Y50250D03*
Y100250D03*
Y250250D03*
X400250Y20250D03*
Y30250D03*
Y40250D03*
Y50250D03*
Y100250D03*
Y250250D03*
X410250Y20250D03*
Y30250D03*
Y40250D03*
Y50250D03*
Y100250D03*
Y250250D03*
X420250Y20250D03*
Y30250D03*
Y40250D03*
Y50250D03*
Y100250D03*
Y250250D03*
X430250Y20250D03*
Y30250D03*
Y40250D03*
Y50250D03*
Y100250D03*
Y250250D03*
X440250Y20250D03*
Y30250D03*
Y40250D03*
Y50250D03*
Y100250D03*
Y250250D03*
X450250Y20250D03*
Y30250D03*
Y40250D03*
Y50250D03*
Y100250D03*
Y250250D03*
X460250Y20250D03*
Y30250D03*
Y40250D03*
Y50250D03*
Y100250D03*
Y250250D03*
X470250Y20250D03*
Y30250D03*
Y40250D03*
Y50250D03*
Y100250D03*
Y250250D03*
X480250Y20250D03*
Y30250D03*
Y40250D03*
Y50250D03*
Y100250D03*
Y250250D03*
X490250Y20250D03*
Y30250D03*
Y40250D03*
Y50250D03*
Y100250D03*
Y250250D03*
X500250Y20250D03*
Y30250D03*
Y40250D03*
Y50250D03*
Y100250D03*
Y250250D03*
X510250Y20250D03*
Y30250D03*
Y40250D03*
Y50250D03*
Y100250D03*
Y250250D03*
X520250Y20250D03*
Y30250D03*
Y40250D03*
Y50250D03*
Y100250D03*
Y250250D03*
X530250Y20250D03*
Y30250D03*
Y40250D03*
Y50250D03*
Y100250D03*
Y250250D03*
X540250Y20250D03*
Y30250D03*
Y40250D03*
Y50250D03*
Y100250D03*
Y250250D03*
X550250Y20250D03*
Y30250D03*
Y40250D03*
Y50250D03*
Y100250D03*
Y250250D03*
X0Y0D02*
M02*
