G04 DesignSpark PCB Gerber Version 10.0 Build 5299*
%FSLAX35Y35*%
%MOIN*%
%ADD29C,0.03937*%
%ADD80C,0.06890*%
X0Y0D02*
D02*
D29*
X40250Y100250D02*
Y120250D01*
X20250D01*
Y240250D01*
X40250Y250250D02*
Y230250D01*
X50250Y100250D02*
Y130250D01*
X30250D01*
Y250250D01*
X50250D02*
Y140250D01*
X60250D01*
Y120250D01*
X90250D01*
Y100250D01*
X60250Y250250D02*
Y170250D01*
X70250Y250250D02*
Y130250D01*
X110250D01*
X90250Y250250D02*
Y150250D01*
X100250D01*
Y250250D02*
Y160250D01*
X110250Y100250D02*
X100250D01*
X120250D02*
X110250D01*
X120250Y120250D02*
Y140250D01*
X80250D01*
Y250250D01*
X120250D02*
Y160250D01*
X150250D01*
Y100250D01*
X130250D02*
X120250D01*
X130250Y140250D02*
Y100250D01*
X140250D02*
Y150250D01*
X110250D01*
Y250250D01*
X140250D02*
Y180250D01*
X170250D01*
Y100250D01*
X160250D02*
Y170250D01*
X130250D01*
Y250250D01*
X160250D02*
Y190250D01*
X180250D01*
Y140250D01*
X170250Y250250D02*
Y210250D01*
X230250D01*
Y100250D01*
X180250Y120250D02*
Y100250D01*
Y250250D02*
Y220250D01*
X240250D01*
Y180250D01*
X250250D01*
Y100250D01*
X190250D02*
Y130250D01*
X180250D01*
X190250Y160250D02*
Y140250D01*
X200250D01*
Y100250D01*
X190250Y240250D02*
X240250D01*
Y250250D01*
X200250Y150250D02*
X210250D01*
Y100250D01*
X200250Y230250D02*
X250250D01*
Y190250D01*
X260250D01*
Y100250D01*
X220250D02*
Y200250D01*
X240250Y100250D02*
Y170250D01*
X260250Y200250D02*
Y250250D01*
X310250Y30250D02*
Y20250D01*
Y40250D02*
Y50250D01*
Y100250D02*
Y250250D01*
X320250Y30250D02*
Y20250D01*
Y40250D02*
Y50250D01*
Y250250D02*
Y100250D01*
X330250Y30250D02*
Y20250D01*
Y40250D02*
Y50250D01*
Y100250D02*
Y250250D01*
X340250Y30250D02*
Y20250D01*
Y40250D02*
Y50250D01*
Y250250D02*
Y100250D01*
X350250Y30250D02*
Y20250D01*
Y40250D02*
Y50250D01*
Y100250D02*
Y250250D01*
X360250Y30250D02*
Y20250D01*
Y40250D02*
Y50250D01*
Y250250D02*
Y100250D01*
X370250Y30250D02*
Y20250D01*
Y40250D02*
Y50250D01*
Y100250D02*
Y250250D01*
X380250Y30250D02*
Y20250D01*
Y40250D02*
Y50250D01*
Y100250D02*
Y250250D01*
X390250Y30250D02*
Y20250D01*
Y40250D02*
Y50250D01*
Y250250D02*
Y100250D01*
X400250Y30250D02*
Y20250D01*
Y40250D02*
Y50250D01*
Y100250D02*
Y250250D01*
X410250Y30250D02*
Y20250D01*
Y40250D02*
Y50250D01*
Y250250D02*
Y100250D01*
X420250Y30250D02*
Y20250D01*
Y40250D02*
Y50250D01*
Y100250D02*
Y250250D01*
X430250Y30250D02*
Y20250D01*
Y40250D02*
Y50250D01*
Y250250D02*
Y100250D01*
X440250Y30250D02*
Y20250D01*
Y40250D02*
Y50250D01*
Y100250D02*
Y250250D01*
X450250Y30250D02*
Y20250D01*
Y40250D02*
Y50250D01*
Y250250D02*
Y100250D01*
X460250Y30250D02*
Y20250D01*
Y40250D02*
Y50250D01*
Y100250D02*
Y250250D01*
X470250Y30250D02*
Y20250D01*
Y40250D02*
Y50250D01*
Y250250D02*
Y100250D01*
X480250Y30250D02*
Y20250D01*
Y40250D02*
Y50250D01*
Y100250D02*
Y250250D01*
X490250Y30250D02*
Y20250D01*
Y40250D02*
Y50250D01*
Y250250D02*
Y100250D01*
X500250Y30250D02*
Y20250D01*
Y40250D02*
Y50250D01*
Y100250D02*
Y250250D01*
X510250Y30250D02*
Y20250D01*
Y40250D02*
Y50250D01*
Y100250D02*
Y250250D01*
X520250Y30250D02*
Y20250D01*
Y40250D02*
Y50250D01*
Y250250D02*
Y100250D01*
X530250Y30250D02*
Y20250D01*
Y40250D02*
Y50250D01*
Y100250D02*
Y250250D01*
X540250Y30250D02*
Y20250D01*
Y40250D02*
Y50250D01*
Y250250D02*
Y100250D01*
X550250Y30250D02*
Y20250D01*
Y40250D02*
Y50250D01*
Y100250D02*
Y250250D01*
D02*
D80*
X20250Y100250D03*
Y240250D03*
Y250250D03*
X30250Y100250D03*
Y250250D03*
X40250Y100250D03*
Y230250D03*
Y250250D03*
X50250Y100250D03*
Y250250D03*
X60250Y100250D03*
Y170250D03*
Y250250D03*
X70250Y100250D03*
Y250250D03*
X80250Y100250D03*
Y250250D03*
X90250Y100250D03*
Y250250D03*
X100250Y100250D03*
Y150250D03*
Y160250D03*
Y250250D03*
X110250Y100250D03*
Y130250D03*
Y250250D03*
X120250Y100250D03*
Y120250D03*
Y250250D03*
X130250Y100250D03*
Y140250D03*
Y250250D03*
X140250Y100250D03*
Y250250D03*
X150250Y100250D03*
Y250250D03*
X160250Y100250D03*
Y250250D03*
X170250Y100250D03*
Y250250D03*
X180250Y100250D03*
Y120250D03*
Y130250D03*
Y140250D03*
Y250250D03*
X190250Y100250D03*
Y160250D03*
Y240250D03*
Y250250D03*
X200250Y100250D03*
Y150250D03*
Y230250D03*
Y250250D03*
X210250Y100250D03*
Y250250D03*
X220250Y100250D03*
Y200250D03*
Y250250D03*
X230250Y100250D03*
Y250250D03*
X240250Y100250D03*
Y170250D03*
Y250250D03*
X250250Y100250D03*
Y250250D03*
X260250Y100250D03*
Y200250D03*
Y250250D03*
X310250Y20250D03*
Y30250D03*
Y40250D03*
Y50250D03*
Y100250D03*
Y250250D03*
X320250Y20250D03*
Y30250D03*
Y40250D03*
Y50250D03*
Y100250D03*
Y250250D03*
X330250Y20250D03*
Y30250D03*
Y40250D03*
Y50250D03*
Y100250D03*
Y250250D03*
X340250Y20250D03*
Y30250D03*
Y40250D03*
Y50250D03*
Y100250D03*
Y250250D03*
X350250Y20250D03*
Y30250D03*
Y40250D03*
Y50250D03*
Y100250D03*
Y250250D03*
X360250Y20250D03*
Y30250D03*
Y40250D03*
Y50250D03*
Y100250D03*
Y250250D03*
X370250Y20250D03*
Y30250D03*
Y40250D03*
Y50250D03*
Y100250D03*
Y250250D03*
X380250Y20250D03*
Y30250D03*
Y40250D03*
Y50250D03*
Y100250D03*
Y250250D03*
X390250Y20250D03*
Y30250D03*
Y40250D03*
Y50250D03*
Y100250D03*
Y250250D03*
X400250Y20250D03*
Y30250D03*
Y40250D03*
Y50250D03*
Y100250D03*
Y250250D03*
X410250Y20250D03*
Y30250D03*
Y40250D03*
Y50250D03*
Y100250D03*
Y250250D03*
X420250Y20250D03*
Y30250D03*
Y40250D03*
Y50250D03*
Y100250D03*
Y250250D03*
X430250Y20250D03*
Y30250D03*
Y40250D03*
Y50250D03*
Y100250D03*
Y250250D03*
X440250Y20250D03*
Y30250D03*
Y40250D03*
Y50250D03*
Y100250D03*
Y250250D03*
X450250Y20250D03*
Y30250D03*
Y40250D03*
Y50250D03*
Y100250D03*
Y250250D03*
X460250Y20250D03*
Y30250D03*
Y40250D03*
Y50250D03*
Y100250D03*
Y250250D03*
X470250Y20250D03*
Y30250D03*
Y40250D03*
Y50250D03*
Y100250D03*
Y250250D03*
X480250Y20250D03*
Y30250D03*
Y40250D03*
Y50250D03*
Y100250D03*
Y250250D03*
X490250Y20250D03*
Y30250D03*
Y40250D03*
Y50250D03*
Y100250D03*
Y250250D03*
X500250Y20250D03*
Y30250D03*
Y40250D03*
Y50250D03*
Y100250D03*
Y250250D03*
X510250Y20250D03*
Y30250D03*
Y40250D03*
Y50250D03*
Y100250D03*
Y250250D03*
X520250Y20250D03*
Y30250D03*
Y40250D03*
Y50250D03*
Y100250D03*
Y250250D03*
X530250Y20250D03*
Y30250D03*
Y40250D03*
Y50250D03*
Y100250D03*
Y250250D03*
X540250Y20250D03*
Y30250D03*
Y40250D03*
Y50250D03*
Y100250D03*
Y250250D03*
X550250Y20250D03*
Y30250D03*
Y40250D03*
Y50250D03*
Y100250D03*
Y250250D03*
X0Y0D02*
M02*
