G05
M48
INCH,TZ
FMAT,2
T1C000.03500
%
T001
X0.20250Y1.00250
X0.20250Y2.40250
X0.20250Y2.50250
X0.30250Y1.00250
X0.30250Y2.50250
X0.40250Y1.00250
X0.40250Y2.30250
X0.40250Y2.50250
X0.50250Y1.00250
X0.50250Y2.50250
X0.60250Y1.00250
X0.60250Y1.70250
X0.60250Y2.50250
X0.70250Y1.00250
X0.70250Y2.50250
X0.80250Y1.00250
X0.80250Y2.50250
X0.90250Y1.00250
X0.90250Y2.50250
X1.00250Y1.00250
X1.00250Y1.50250
X1.00250Y1.60250
X1.00250Y2.50250
X1.10250Y1.00250
X1.10250Y1.30250
X1.10250Y2.50250
X1.20250Y1.00250
X1.20250Y1.20250
X1.20250Y2.50250
X1.30250Y1.00250
X1.30250Y1.40250
X1.30250Y2.50250
X1.40250Y1.00250
X1.40250Y2.50250
X1.50250Y1.00250
X1.50250Y2.50250
X1.60250Y1.00250
X1.60250Y2.50250
X1.70250Y1.00250
X1.70250Y2.50250
X1.80250Y1.00250
X1.80250Y1.20250
X1.80250Y1.30250
X1.80250Y1.40250
X1.80250Y2.50250
X1.90250Y1.00250
X1.90250Y1.60250
X1.90250Y2.40250
X1.90250Y2.50250
X2.00250Y1.00250
X2.00250Y1.50250
X2.00250Y2.30250
X2.00250Y2.50250
X2.10250Y1.00250
X2.10250Y2.50250
X2.20250Y1.00250
X2.20250Y2.00250
X2.20250Y2.50250
X2.30250Y1.00250
X2.30250Y2.50250
X2.40250Y1.00250
X2.40250Y1.70250
X2.40250Y2.50250
X2.50250Y1.00250
X2.50250Y2.50250
X2.60250Y1.00250
X2.60250Y2.00250
X2.60250Y2.50250
X3.10250Y0.20250
X3.10250Y0.30250
X3.10250Y0.40250
X3.10250Y0.50250
X3.10250Y1.00250
X3.10250Y2.50250
X3.20250Y0.20250
X3.20250Y0.30250
X3.20250Y0.40250
X3.20250Y0.50250
X3.20250Y1.00250
X3.20250Y2.50250
X3.30250Y0.20250
X3.30250Y0.30250
X3.30250Y0.40250
X3.30250Y0.50250
X3.30250Y1.00250
X3.30250Y2.50250
X3.40250Y0.20250
X3.40250Y0.30250
X3.40250Y0.40250
X3.40250Y0.50250
X3.40250Y1.00250
X3.40250Y2.50250
X3.50250Y0.20250
X3.50250Y0.30250
X3.50250Y0.40250
X3.50250Y0.50250
X3.50250Y1.00250
X3.50250Y2.50250
X3.60250Y0.20250
X3.60250Y0.30250
X3.60250Y0.40250
X3.60250Y0.50250
X3.60250Y1.00250
X3.60250Y2.50250
X3.70250Y0.20250
X3.70250Y0.30250
X3.70250Y0.40250
X3.70250Y0.50250
X3.70250Y1.00250
X3.70250Y2.50250
X3.80250Y0.20250
X3.80250Y0.30250
X3.80250Y0.40250
X3.80250Y0.50250
X3.80250Y1.00250
X3.80250Y2.50250
X3.90250Y0.20250
X3.90250Y0.30250
X3.90250Y0.40250
X3.90250Y0.50250
X3.90250Y1.00250
X3.90250Y2.50250
X4.00250Y0.20250
X4.00250Y0.30250
X4.00250Y0.40250
X4.00250Y0.50250
X4.00250Y1.00250
X4.00250Y2.50250
X4.10250Y0.20250
X4.10250Y0.30250
X4.10250Y0.40250
X4.10250Y0.50250
X4.10250Y1.00250
X4.10250Y2.50250
X4.20250Y0.20250
X4.20250Y0.30250
X4.20250Y0.40250
X4.20250Y0.50250
X4.20250Y1.00250
X4.20250Y2.50250
X4.30250Y0.20250
X4.30250Y0.30250
X4.30250Y0.40250
X4.30250Y0.50250
X4.30250Y1.00250
X4.30250Y2.50250
X4.40250Y0.20250
X4.40250Y0.30250
X4.40250Y0.40250
X4.40250Y0.50250
X4.40250Y1.00250
X4.40250Y2.50250
X4.50250Y0.20250
X4.50250Y0.30250
X4.50250Y0.40250
X4.50250Y0.50250
X4.50250Y1.00250
X4.50250Y2.50250
X4.60250Y0.20250
X4.60250Y0.30250
X4.60250Y0.40250
X4.60250Y0.50250
X4.60250Y1.00250
X4.60250Y2.50250
X4.70250Y0.20250
X4.70250Y0.30250
X4.70250Y0.40250
X4.70250Y0.50250
X4.70250Y1.00250
X4.70250Y2.50250
X4.80250Y0.20250
X4.80250Y0.30250
X4.80250Y0.40250
X4.80250Y0.50250
X4.80250Y1.00250
X4.80250Y2.50250
X4.90250Y0.20250
X4.90250Y0.30250
X4.90250Y0.40250
X4.90250Y0.50250
X4.90250Y1.00250
X4.90250Y2.50250
X5.00250Y0.20250
X5.00250Y0.30250
X5.00250Y0.40250
X5.00250Y0.50250
X5.00250Y1.00250
X5.00250Y2.50250
X5.10250Y0.20250
X5.10250Y0.30250
X5.10250Y0.40250
X5.10250Y0.50250
X5.10250Y1.00250
X5.10250Y2.50250
X5.20250Y0.20250
X5.20250Y0.30250
X5.20250Y0.40250
X5.20250Y0.50250
X5.20250Y1.00250
X5.20250Y2.50250
X5.30250Y0.20250
X5.30250Y0.30250
X5.30250Y0.40250
X5.30250Y0.50250
X5.30250Y1.00250
X5.30250Y2.50250
X5.40250Y0.20250
X5.40250Y0.30250
X5.40250Y0.40250
X5.40250Y0.50250
X5.40250Y1.00250
X5.40250Y2.50250
X5.50250Y0.20250
X5.50250Y0.30250
X5.50250Y0.40250
X5.50250Y0.50250
X5.50250Y1.00250
X5.50250Y2.50250
M30
